<?xml version="1.0" encoding="UTF-8"?>
<svg xmlns="http://www.w3.org/2000/svg" version="1.1" viewBox="0 0 273 56">
  <defs>
    <style>
      .cls-1 {
        fill: #fff;
      }

      .cls-2 {
        fill: #e91a29;
      }
    </style>
  </defs>
  <!-- Generator: Adobe Illustrator 28.7.1, SVG Export Plug-In . SVG Version: 1.2.0 Build 142)  -->
  <g>
    <g id="Layer_1">
      <rect class="cls-2" width="273" height="56" rx="22.55" ry="22.55"/>
      <g>
        <path class="cls-1" d="M95.08,31.12c-.25.85-.65,1.57-1.2,2.14s-1.19,1-1.94,1.28c-.75.28-1.57.42-2.46.42-1.31,0-2.44-.27-3.39-.82s-1.69-1.33-2.2-2.34c-.51-1.01-.77-2.23-.77-3.64s.26-2.63.77-3.64c.51-1.01,1.25-1.79,2.2-2.34.95-.55,2.07-.82,3.35-.82.91,0,1.73.12,2.46.37s1.36.63,1.87,1.14c.51.51.89,1.15,1.13,1.91l-2.5,1.06c-.23-.8-.57-1.37-1.04-1.71-.47-.34-1.07-.51-1.8-.51s-1.35.17-1.89.52c-.54.35-.96.86-1.25,1.53s-.44,1.5-.44,2.49.14,1.8.41,2.48c.27.68.68,1.19,1.21,1.54.53.35,1.19.52,1.96.52.72,0,1.34-.19,1.87-.58.53-.39.9-.97,1.11-1.76l2.54.76Z"/>
        <path class="cls-1" d="M101.72,24.56c1.01,0,1.9.21,2.67.62.77.41,1.37,1.01,1.8,1.78.43.77.65,1.71.65,2.8s-.22,2.01-.65,2.79c-.43.78-1.03,1.38-1.8,1.79s-1.66.62-2.67.62-1.89-.21-2.66-.62-1.38-1.01-1.81-1.79c-.43-.78-.65-1.71-.65-2.79s.22-2.03.65-2.8,1.04-1.37,1.81-1.78c.77-.41,1.66-.62,2.66-.62ZM101.72,26.6c-.51,0-.94.12-1.29.35-.35.23-.62.58-.81,1.05-.19.47-.28,1.05-.28,1.76s.09,1.29.28,1.76c.19.47.46.82.81,1.05.35.23.78.35,1.29.35s.92-.12,1.27-.35c.35-.23.62-.58.81-1.05.19-.47.28-1.05.28-1.76s-.09-1.29-.28-1.76c-.19-.47-.46-.82-.81-1.05-.35-.23-.78-.35-1.27-.35Z"/>
        <path class="cls-1" d="M109.14,34.77v-10h2.46l.16,3-.34-.32c.16-.65.41-1.19.76-1.61.35-.42.77-.74,1.27-.95s1.05-.32,1.65-.32c.69,0,1.31.13,1.85.4s.97.67,1.28,1.21c.31.54.47,1.22.47,2.03v6.56h-2.74v-5.78c0-.85-.17-1.44-.5-1.77-.33-.33-.77-.49-1.3-.49-.37,0-.74.09-1.09.27-.35.18-.64.47-.86.87-.22.4-.33.93-.33,1.6v5.3h-2.74Z"/>
        <path class="cls-1" d="M128.18,24.77v2.04h-7.78v-2.04h7.78ZM124.98,21.71v9.8c0,.48.12.83.37,1.05.25.22.58.33,1.01.33.35,0,.64-.05.89-.15.25-.1.47-.24.67-.41l.44,1.82c-.32.25-.72.45-1.2.6-.48.15-.99.22-1.52.22-.67,0-1.26-.1-1.77-.3-.51-.2-.91-.52-1.2-.96-.29-.44-.43-1.03-.43-1.76v-9.48l2.74-.76Z"/>
        <path class="cls-1" d="M135.84,28.39c0-.57-.16-1.02-.49-1.34-.33-.32-.76-.48-1.29-.48-.49,0-.93.13-1.3.38-.37.25-.65.67-.82,1.26l-2.34-.72c.23-.88.72-1.59,1.49-2.12.77-.53,1.8-.8,3.09-.8.88,0,1.65.14,2.3.41.65.27,1.16.68,1.53,1.23.37.55.55,1.23.55,2.06v4.06c0,.51.24.76.72.76.23,0,.44-.03.64-.1l-.16,1.7c-.35.17-.78.26-1.3.26-.47,0-.89-.08-1.26-.24s-.67-.4-.88-.73c-.21-.33-.32-.74-.32-1.23v-.08l.48-.08c-.08.51-.3.94-.66,1.29-.36.35-.8.62-1.31.81-.51.19-1.04.28-1.59.28-.68,0-1.27-.1-1.76-.31-.49-.21-.87-.51-1.14-.91-.27-.4-.4-.89-.4-1.48,0-.75.24-1.36.72-1.83s1.17-.8,2.06-.97l3.76-.76-.02,1.7-2.4.48c-.45.09-.8.22-1.03.37s-.35.4-.35.75.12.59.37.76c.25.17.54.26.89.26.28,0,.55-.03.82-.1.27-.07.51-.17.72-.32s.38-.35.5-.6c.12-.25.18-.56.18-.92v-2.7Z"/>
        <path class="cls-1" d="M146.12,24.56c.89,0,1.65.13,2.27.39.62.26,1.12.61,1.5,1.06s.65.94.81,1.49l-2.56.92c-.13-.6-.36-1.05-.68-1.36-.32-.31-.75-.46-1.3-.46-.51,0-.94.12-1.3.35-.36.23-.63.59-.82,1.06-.19.47-.28,1.06-.28,1.77s.1,1.29.29,1.76c.19.47.47.81.84,1.04.37.23.8.34,1.29.34.4,0,.74-.07,1.02-.21.28-.14.51-.34.69-.61s.3-.59.37-.96l2.48.8c-.15.6-.42,1.13-.82,1.58-.4.45-.91.81-1.54,1.06-.63.25-1.35.38-2.18.38-1.03,0-1.93-.21-2.72-.62s-1.39-1.01-1.82-1.78-.64-1.71-.64-2.8.21-2.03.64-2.8,1.03-1.37,1.8-1.78c.77-.41,1.66-.62,2.66-.62Z"/>
        <path class="cls-1" d="M159.6,24.77v2.04h-7.78v-2.04h7.78ZM156.4,21.71v9.8c0,.48.12.83.37,1.05.25.22.58.33,1.01.33.35,0,.64-.05.89-.15.25-.1.47-.24.67-.41l.44,1.82c-.32.25-.72.45-1.2.6-.48.15-.99.22-1.52.22-.67,0-1.26-.1-1.77-.3-.51-.2-.91-.52-1.2-.96-.29-.44-.43-1.03-.43-1.76v-9.48l2.74-.76Z"/>
        <path class="cls-1" d="M178.88,21.56v8c0,1.8-.48,3.15-1.44,4.05-.96.9-2.36,1.35-4.2,1.35s-3.24-.45-4.2-1.35c-.96-.9-1.44-2.25-1.44-4.05v-8h2.76v7.88c0,1.11.24,1.93.71,2.46.47.53,1.2.8,2.17.8s1.69-.27,2.16-.8.7-1.35.7-2.46v-7.88h2.78Z"/>
        <path class="cls-1" d="M185.66,34.97c-1.01,0-1.94-.18-2.77-.54-.83-.36-1.51-.87-2.03-1.52l1.58-1.6c.32.48.75.87,1.28,1.18s1.17.46,1.9.46c.52,0,.94-.08,1.25-.23.31-.15.47-.4.47-.73,0-.21-.07-.4-.22-.55-.15-.15-.44-.28-.88-.37l-1.76-.36c-1.16-.24-1.98-.6-2.47-1.09-.49-.49-.73-1.12-.73-1.89,0-.55.16-1.06.49-1.54s.82-.87,1.47-1.17,1.47-.45,2.44-.45,1.87.16,2.61.47c.74.31,1.32.78,1.75,1.39l-1.64,1.6c-.29-.47-.68-.82-1.15-1.07-.47-.25-.97-.37-1.49-.37-.37,0-.69.04-.96.12s-.47.19-.6.33c-.13.14-.2.32-.2.53s.09.4.28.55.53.28,1.02.39l2.04.42c.99.2,1.69.54,2.12,1.01s.64,1.04.64,1.71-.17,1.21-.51,1.71-.84.89-1.5,1.18c-.66.29-1.47.43-2.43.43Z"/>
      </g>
    </g>
  </g>
</svg>