<?xml version="1.0" encoding="UTF-8"?>
<svg xmlns="http://www.w3.org/2000/svg" version="1.1" viewBox="0 0 600 400">
  <defs>
    <style>
      .cls-1 {
        fill: #fff;
      }

      .cls-2 {
        fill: #262324;
        opacity: 0;
      }
    </style>
  </defs>
  <!-- Generator: Adobe Illustrator 28.7.1, SVG Export Plug-In . SVG Version: 1.2.0 Build 142)  -->
  <g>
    <g id="Layer_1">
      <rect class="cls-2" width="600" height="400"/>
      <g>
        <path class="cls-1" d="M146.94,189.79h-16.67v7.82h13.16v5.25h-13.16v12.64h-6.46v-30.91h23.13v5.2Z"/>
        <path class="cls-1" d="M161.73,200.56c0-1.34-.38-2.39-1.15-3.14-.77-.75-1.77-1.12-3.02-1.12-1.16,0-2.17.3-3.04.89-.88.59-1.51,1.58-1.92,2.95l-5.48-1.69c.53-2.06,1.69-3.71,3.49-4.96,1.79-1.25,4.21-1.87,7.24-1.87,2.06,0,3.86.32,5.38.96,1.53.64,2.72,1.6,3.58,2.88.86,1.28,1.29,2.89,1.29,4.82v9.51c0,1.19.56,1.78,1.69,1.78.53,0,1.03-.08,1.5-.23l-.38,3.98c-.81.41-1.83.61-3.04.61-1.09,0-2.08-.19-2.95-.56-.88-.38-1.56-.94-2.06-1.71-.5-.76-.75-1.72-.75-2.88v-.19l1.12-.19c-.19,1.19-.7,2.19-1.54,3.02s-1.87,1.46-3.07,1.9c-1.2.44-2.44.66-3.72.66-1.59,0-2.97-.24-4.12-.73-1.16-.48-2.04-1.19-2.67-2.13-.62-.94-.94-2.09-.94-3.46,0-1.75.56-3.18,1.69-4.29s2.73-1.87,4.82-2.27l8.8-1.78-.05,3.98-5.62,1.12c-1.06.22-1.87.51-2.41.87-.55.36-.82.94-.82,1.76s.29,1.37.87,1.78c.58.41,1.27.61,2.08.61.66,0,1.29-.08,1.92-.23.62-.16,1.19-.41,1.69-.75s.89-.81,1.17-1.41c.28-.59.42-1.31.42-2.15v-6.32Z"/>
        <path class="cls-1" d="M174.1,215.5v-23.42h5.76l.38,7.02-.8-.75c.37-1.53.97-2.79,1.78-3.77.81-.98,1.8-1.72,2.97-2.22,1.17-.5,2.46-.75,3.86-.75,1.62,0,3.07.31,4.33.94,1.26.62,2.26,1.57,3,2.83.73,1.26,1.1,2.85,1.1,4.75v15.36h-6.42v-13.53c0-2-.39-3.38-1.17-4.14-.78-.76-1.79-1.15-3.04-1.15-.87,0-1.72.21-2.55.63-.83.42-1.5,1.1-2.01,2.04-.52.94-.77,2.19-.77,3.75v12.41h-6.42Z"/>
        <path class="cls-1" d="M215.73,215.5v-30.91h23.18v5.2h-16.72v7.68h13.16v4.96h-13.16v7.87h17.37v5.2h-23.84Z"/>
        <path class="cls-1" d="M265.88,192.08l-9.04,12.6-1.92-.14-6.84,10.96h-7.26l9.69-13.3,1.83.23,6.23-10.35h7.31ZM248.75,192.08l6.18,10.26,1.73-.05,9.37,13.21h-7.45l-6.37-10.49-1.92-.19-9.04-12.74h7.49Z"/>
        <path class="cls-1" d="M269.02,225.33v-33.25h5.76l.42,7.45-.8-.84c.28-1.37.8-2.59,1.57-3.65.76-1.06,1.74-1.9,2.93-2.51,1.19-.61,2.51-.91,3.98-.91,1.9,0,3.61.48,5.1,1.45,1.5.97,2.68,2.35,3.54,4.14.86,1.79,1.29,3.97,1.29,6.53s-.44,4.75-1.31,6.58-2.07,3.22-3.58,4.19-3.24,1.45-5.17,1.45c-2.06,0-3.77-.58-5.13-1.73-1.36-1.15-2.29-2.61-2.79-4.36l.61-.98v16.44h-6.42ZM280.87,211.05c1.72,0,3.07-.62,4.05-1.85.98-1.23,1.48-3.04,1.48-5.41s-.48-4.17-1.43-5.41-2.29-1.85-4-1.85c-1.09,0-2.05.29-2.88.87-.83.58-1.48,1.41-1.94,2.48-.47,1.08-.7,2.38-.7,3.91s.22,2.76.66,3.86c.44,1.11,1.07,1.95,1.9,2.53.83.58,1.79.87,2.88.87Z"/>
        <path class="cls-1" d="M308.08,215.96c-2.47,0-4.61-.48-6.44-1.45-1.83-.97-3.24-2.36-4.24-4.17-1-1.81-1.5-4-1.5-6.56s.5-4.75,1.5-6.56c1-1.81,2.4-3.2,4.19-4.17,1.79-.97,3.85-1.45,6.16-1.45s4.39.48,6.04,1.43c1.65.95,2.92,2.25,3.79,3.89s1.31,3.5,1.31,5.6c0,.62-.02,1.22-.05,1.78-.03.56-.08,1.06-.14,1.5h-18.69v-4.45h15.88l-3.09,1.12c0-1.97-.45-3.48-1.33-4.54s-2.15-1.59-3.77-1.59c-1.19,0-2.21.28-3.07.84-.86.56-1.51,1.4-1.94,2.5-.44,1.11-.66,2.51-.66,4.19s.24,3.02.73,4.1,1.17,1.88,2.06,2.41c.89.53,1.96.8,3.21.8,1.37,0,2.48-.26,3.33-.8.84-.53,1.5-1.26,1.97-2.2l5.1,1.97c-.5,1.22-1.26,2.26-2.27,3.14-1.01.88-2.22,1.54-3.61,1.99-1.39.45-2.88.68-4.47.68Z"/>
        <path class="cls-1" d="M323.16,215.5v-23.42h5.57l.42,4.59c.62-1.62,1.54-2.87,2.74-3.75s2.71-1.31,4.52-1.31c.53,0,1.01.05,1.45.14.44.09.8.22,1.08.38l-.75,5.38c-.31-.12-.7-.22-1.15-.28s-1.04-.09-1.76-.09c-.94,0-1.84.23-2.72.68-.88.45-1.59,1.14-2.15,2.06-.56.92-.84,2.08-.84,3.49v12.13h-6.42Z"/>
        <path class="cls-1" d="M344.98,188.71c-1.34,0-2.34-.29-3-.87-.66-.58-.98-1.43-.98-2.55s.33-2.02.98-2.6c.66-.58,1.65-.87,3-.87s2.34.29,3,.87c.66.58.98,1.44.98,2.6s-.33,1.98-.98,2.55c-.66.58-1.66.87-3,.87ZM348.17,192.08v23.42h-6.42v-23.42h6.42Z"/>
        <path class="cls-1" d="M364.65,215.96c-2.47,0-4.61-.48-6.44-1.45-1.83-.97-3.24-2.36-4.24-4.17-1-1.81-1.5-4-1.5-6.56s.5-4.75,1.5-6.56c1-1.81,2.4-3.2,4.19-4.17,1.79-.97,3.85-1.45,6.16-1.45s4.39.48,6.04,1.43c1.65.95,2.92,2.25,3.79,3.89s1.31,3.5,1.31,5.6c0,.62-.02,1.22-.05,1.78-.03.56-.08,1.06-.14,1.5h-18.69v-4.45h15.88l-3.09,1.12c0-1.97-.45-3.48-1.33-4.54s-2.15-1.59-3.77-1.59c-1.19,0-2.21.28-3.07.84-.86.56-1.51,1.4-1.94,2.5-.44,1.11-.66,2.51-.66,4.19s.24,3.02.73,4.1,1.17,1.88,2.06,2.41c.89.53,1.96.8,3.21.8,1.37,0,2.48-.26,3.33-.8.84-.53,1.5-1.26,1.97-2.2l5.1,1.97c-.5,1.22-1.26,2.26-2.27,3.14-1.01.88-2.22,1.54-3.61,1.99-1.39.45-2.88.68-4.47.68Z"/>
        <path class="cls-1" d="M379.73,215.5v-23.42h5.76l.38,7.02-.8-.75c.37-1.53.97-2.79,1.78-3.77.81-.98,1.8-1.72,2.97-2.22,1.17-.5,2.46-.75,3.86-.75,1.62,0,3.07.31,4.33.94,1.26.62,2.26,1.57,3,2.83.73,1.26,1.1,2.85,1.1,4.75v15.36h-6.42v-13.53c0-2-.39-3.38-1.17-4.14-.78-.76-1.79-1.15-3.04-1.15-.87,0-1.72.21-2.55.63-.83.42-1.5,1.1-2.01,2.04-.52.94-.77,2.19-.77,3.75v12.41h-6.42Z"/>
        <path class="cls-1" d="M418.18,191.61c2.09,0,3.86.3,5.32.91,1.45.61,2.62,1.44,3.51,2.48s1.52,2.21,1.9,3.49l-5.99,2.15c-.31-1.4-.84-2.47-1.59-3.18-.75-.72-1.76-1.08-3.04-1.08-1.19,0-2.2.27-3.04.82-.84.55-1.48,1.37-1.92,2.48-.44,1.11-.66,2.49-.66,4.14s.23,3.03.68,4.12c.45,1.09,1.11,1.91,1.97,2.44.86.53,1.87.8,3.02.8.94,0,1.73-.16,2.39-.49.66-.33,1.19-.8,1.62-1.43.42-.62.71-1.37.87-2.25l5.81,1.87c-.34,1.41-.98,2.64-1.92,3.7s-2.14,1.89-3.61,2.48-3.17.89-5.1.89c-2.4,0-4.53-.48-6.37-1.45s-3.26-2.36-4.26-4.17c-1-1.81-1.5-4-1.5-6.56s.5-4.75,1.5-6.56c1-1.81,2.4-3.2,4.21-4.17s3.89-1.45,6.23-1.45Z"/>
        <path class="cls-1" d="M443.65,215.96c-2.47,0-4.61-.48-6.44-1.45-1.83-.97-3.24-2.36-4.24-4.17-1-1.81-1.5-4-1.5-6.56s.5-4.75,1.5-6.56c1-1.81,2.4-3.2,4.19-4.17,1.79-.97,3.85-1.45,6.16-1.45s4.39.48,6.04,1.43c1.65.95,2.92,2.25,3.79,3.89s1.31,3.5,1.31,5.6c0,.62-.02,1.22-.05,1.78-.03.56-.08,1.06-.14,1.5h-18.69v-4.45h15.88l-3.09,1.12c0-1.97-.45-3.48-1.33-4.54s-2.15-1.59-3.77-1.59c-1.19,0-2.21.28-3.07.84-.86.56-1.51,1.4-1.94,2.5-.44,1.11-.66,2.51-.66,4.19s.24,3.02.73,4.1,1.17,1.88,2.06,2.41c.89.53,1.96.8,3.21.8,1.37,0,2.48-.26,3.33-.8.84-.53,1.5-1.26,1.97-2.2l5.1,1.97c-.5,1.22-1.26,2.26-2.27,3.14-1.01.88-2.22,1.54-3.61,1.99-1.39.45-2.88.68-4.47.68Z"/>
        <path class="cls-1" d="M468.1,215.96c-2.37,0-4.54-.42-6.49-1.26s-3.54-2.03-4.75-3.56l3.7-3.75c.75,1.12,1.75,2.04,3,2.76,1.25.72,2.73,1.08,4.45,1.08,1.22,0,2.19-.18,2.93-.54.73-.36,1.1-.93,1.1-1.71,0-.5-.17-.93-.52-1.29-.34-.36-1.03-.65-2.06-.87l-4.12-.84c-2.72-.56-4.64-1.41-5.78-2.55s-1.71-2.62-1.71-4.43c0-1.28.38-2.48,1.15-3.61.77-1.12,1.91-2.04,3.44-2.74,1.53-.7,3.43-1.05,5.71-1.05s4.38.37,6.11,1.1c1.73.73,3.1,1.82,4.1,3.25l-3.84,3.75c-.69-1.09-1.58-1.93-2.69-2.5s-2.27-.87-3.49-.87c-.87,0-1.62.09-2.25.28-.62.19-1.09.45-1.41.77-.31.33-.47.74-.47,1.24s.22.93.66,1.29c.44.36,1.23.66,2.39.91l4.78.98c2.31.47,3.96,1.26,4.96,2.37s1.5,2.44,1.5,4-.4,2.83-1.19,4-1.97,2.09-3.51,2.76c-1.54.67-3.44,1.01-5.69,1.01Z"/>
      </g>
    </g>
  </g>
</svg>