<?xml version="1.0" encoding="UTF-8"?>
<svg xmlns="http://www.w3.org/2000/svg" version="1.1" viewBox="0 0 600 400">
  <defs>
    <style>
      .cls-1 {
        fill: #fff;
      }

      .cls-2 {
        fill: #262324;
        opacity: 0;
      }
    </style>
  </defs>
  <!-- Generator: Adobe Illustrator 28.7.1, SVG Export Plug-In . SVG Version: 1.2.0 Build 142)  -->
  <g>
    <g id="Layer_1">
      <rect class="cls-2" width="600" height="400"/>
      <g>
        <path class="cls-1" d="M153.94,184.12c2.81,0,5.28.48,7.4,1.45s3.93,2.4,5.43,4.31l-3.61,4.17c-1.28-1.62-2.68-2.82-4.19-3.58-1.51-.76-3.27-1.15-5.27-1.15-1.31,0-2.4.17-3.25.52-.86.34-1.48.8-1.87,1.36-.39.56-.58,1.19-.58,1.87,0,.84.33,1.55.98,2.13s1.78,1.05,3.37,1.43l5.76,1.31c3.06.69,5.25,1.71,6.58,3.07,1.33,1.36,1.99,3.11,1.99,5.27,0,2.03-.53,3.77-1.59,5.22-1.06,1.45-2.54,2.56-4.45,3.33-1.91.76-4.09,1.15-6.56,1.15-2.15,0-4.13-.26-5.92-.77-1.8-.51-3.4-1.22-4.8-2.13-1.4-.91-2.58-1.95-3.51-3.14l3.65-4.35c.72,1,1.61,1.89,2.67,2.67,1.06.78,2.27,1.4,3.63,1.85,1.36.45,2.79.68,4.29.68,1.28,0,2.37-.15,3.25-.45.89-.3,1.56-.72,2.01-1.26.45-.55.68-1.21.68-1.99s-.27-1.51-.82-2.08c-.55-.58-1.55-1.02-3.02-1.33l-6.28-1.4c-1.81-.44-3.36-1.01-4.66-1.71-1.3-.7-2.28-1.61-2.95-2.72-.67-1.11-1.01-2.43-1.01-3.96,0-1.84.5-3.5,1.5-4.96,1-1.47,2.44-2.63,4.33-3.49,1.89-.86,4.16-1.29,6.81-1.29Z"/>
        <path class="cls-1" d="M181.66,191.61c2.37,0,4.46.48,6.25,1.45s3.2,2.36,4.21,4.17,1.52,4,1.52,6.56-.51,4.71-1.52,6.53-2.42,3.22-4.21,4.19-3.88,1.45-6.25,1.45-4.42-.48-6.23-1.45-3.22-2.37-4.24-4.19c-1.02-1.83-1.52-4-1.52-6.53s.51-4.75,1.52-6.56c1.01-1.81,2.43-3.2,4.24-4.17s3.89-1.45,6.23-1.45ZM181.66,196.39c-1.19,0-2.19.27-3.02.82s-1.46,1.37-1.9,2.46c-.44,1.09-.66,2.47-.66,4.12s.22,3.03.66,4.12c.44,1.09,1.07,1.91,1.9,2.46.83.55,1.83.82,3.02.82s2.15-.27,2.97-.82c.83-.55,1.46-1.37,1.9-2.46.44-1.09.66-2.47.66-4.12s-.22-3.03-.66-4.12c-.44-1.09-1.07-1.91-1.9-2.46-.83-.55-1.82-.82-2.97-.82Z"/>
        <path class="cls-1" d="M208.49,191.61c2.09,0,3.86.3,5.32.91,1.45.61,2.62,1.44,3.51,2.48s1.52,2.21,1.9,3.49l-5.99,2.15c-.31-1.4-.84-2.47-1.59-3.18-.75-.72-1.76-1.08-3.04-1.08-1.19,0-2.2.27-3.04.82-.84.55-1.48,1.37-1.92,2.48-.44,1.11-.66,2.49-.66,4.14s.23,3.03.68,4.12c.45,1.09,1.11,1.91,1.97,2.44.86.53,1.87.8,3.02.8.94,0,1.73-.16,2.39-.49.66-.33,1.19-.8,1.62-1.43.42-.62.71-1.37.87-2.25l5.81,1.87c-.34,1.41-.98,2.64-1.92,3.7s-2.14,1.89-3.61,2.48-3.17.89-5.1.89c-2.4,0-4.53-.48-6.37-1.45s-3.26-2.36-4.26-4.17c-1-1.81-1.5-4-1.5-6.56s.5-4.75,1.5-6.56c1-1.81,2.4-3.2,4.21-4.17s3.89-1.45,6.23-1.45Z"/>
        <path class="cls-1" d="M226.34,188.71c-1.34,0-2.34-.29-3-.87-.66-.58-.98-1.43-.98-2.55s.33-2.02.98-2.6c.66-.58,1.65-.87,3-.87s2.34.29,3,.87c.66.58.98,1.44.98,2.6s-.33,1.98-.98,2.55c-.66.58-1.66.87-3,.87ZM229.52,192.08v23.42h-6.42v-23.42h6.42Z"/>
        <path class="cls-1" d="M248.49,200.56c0-1.34-.38-2.39-1.15-3.14-.77-.75-1.77-1.12-3.02-1.12-1.16,0-2.17.3-3.04.89-.88.59-1.51,1.58-1.92,2.95l-5.48-1.69c.53-2.06,1.69-3.71,3.49-4.96,1.79-1.25,4.21-1.87,7.24-1.87,2.06,0,3.86.32,5.38.96,1.53.64,2.72,1.6,3.58,2.88.86,1.28,1.29,2.89,1.29,4.82v9.51c0,1.19.56,1.78,1.69,1.78.53,0,1.03-.08,1.5-.23l-.38,3.98c-.81.41-1.83.61-3.04.61-1.09,0-2.08-.19-2.95-.56-.88-.38-1.56-.94-2.06-1.71-.5-.76-.75-1.72-.75-2.88v-.19l1.12-.19c-.19,1.19-.7,2.19-1.54,3.02s-1.87,1.46-3.07,1.9c-1.2.44-2.44.66-3.72.66-1.59,0-2.97-.24-4.12-.73-1.16-.48-2.04-1.19-2.67-2.13-.62-.94-.94-2.09-.94-3.46,0-1.75.56-3.18,1.69-4.29s2.73-1.87,4.82-2.27l8.8-1.78-.05,3.98-5.62,1.12c-1.06.22-1.87.51-2.41.87-.55.36-.82.94-.82,1.76s.29,1.37.87,1.78c.58.41,1.27.61,2.08.61.66,0,1.29-.08,1.92-.23.62-.16,1.19-.41,1.69-.75s.89-.81,1.17-1.41c.28-.59.42-1.31.42-2.15v-6.32Z"/>
        <path class="cls-1" d="M267.17,181.83v26.46c0,1.09.19,1.86.56,2.29s1,.66,1.87.66c.53,0,.97-.04,1.31-.12.34-.08.78-.19,1.31-.35l-.56,4.21c-.53.31-1.19.55-1.99.73-.8.17-1.58.26-2.36.26-2.28,0-3.94-.55-4.99-1.66-1.05-1.11-1.57-2.88-1.57-5.32v-27.16h6.42Z"/>
        <path class="cls-1" d="M313.86,206.97c-.59,2-1.53,3.67-2.81,5.01-1.28,1.34-2.79,2.34-4.54,3-1.75.66-3.67.98-5.76.98-3.06,0-5.71-.64-7.94-1.92-2.23-1.28-3.95-3.11-5.15-5.48-1.2-2.37-1.8-5.21-1.8-8.52s.6-6.15,1.8-8.52c1.2-2.37,2.92-4.2,5.15-5.48,2.23-1.28,4.85-1.92,7.84-1.92,2.12,0,4.04.29,5.76.87,1.72.58,3.18,1.47,4.38,2.67,1.2,1.2,2.08,2.69,2.65,4.47l-5.85,2.48c-.53-1.87-1.34-3.21-2.44-4s-2.5-1.19-4.21-1.19-3.16.41-4.43,1.22c-1.26.81-2.24,2.01-2.93,3.58s-1.03,3.52-1.03,5.83.32,4.21.96,5.81c.64,1.59,1.58,2.79,2.83,3.61,1.25.81,2.78,1.22,4.59,1.22,1.69,0,3.15-.45,4.38-1.36,1.23-.91,2.1-2.28,2.6-4.12l5.95,1.78Z"/>
        <path class="cls-1" d="M328.24,191.61c2.37,0,4.46.48,6.25,1.45s3.2,2.36,4.21,4.17,1.52,4,1.52,6.56-.51,4.71-1.52,6.53-2.42,3.22-4.21,4.19-3.88,1.45-6.25,1.45-4.42-.48-6.23-1.45-3.22-2.37-4.24-4.19c-1.02-1.83-1.52-4-1.52-6.53s.51-4.75,1.52-6.56c1.01-1.81,2.43-3.2,4.24-4.17s3.89-1.45,6.23-1.45ZM328.24,196.39c-1.19,0-2.19.27-3.02.82s-1.46,1.37-1.9,2.46c-.44,1.09-.66,2.47-.66,4.12s.22,3.03.66,4.12c.44,1.09,1.07,1.91,1.9,2.46.83.55,1.83.82,3.02.82s2.15-.27,2.97-.82c.83-.55,1.46-1.37,1.9-2.46.44-1.09.66-2.47.66-4.12s-.22-3.03-.66-4.12c-.44-1.09-1.07-1.91-1.9-2.46-.83-.55-1.82-.82-2.97-.82Z"/>
        <path class="cls-1" d="M344.44,215.5v-23.42h5.76l.38,7.02-.8-.75c.37-1.53.97-2.79,1.78-3.77.81-.98,1.8-1.72,2.97-2.22,1.17-.5,2.46-.75,3.86-.75,1.62,0,3.07.31,4.33.94,1.26.62,2.26,1.57,3,2.83.73,1.26,1.1,2.85,1.1,4.75v15.36h-6.42v-13.53c0-2-.39-3.38-1.17-4.14-.78-.76-1.79-1.15-3.04-1.15-.87,0-1.72.21-2.55.63-.83.42-1.5,1.1-2.01,2.04-.52.94-.77,2.19-.77,3.75v12.41h-6.42Z"/>
        <path class="cls-1" d="M387.85,192.08v4.78h-18.22v-4.78h18.22ZM380.36,184.92v22.95c0,1.12.29,1.94.87,2.46.58.52,1.37.77,2.37.77.81,0,1.51-.12,2.08-.35.58-.23,1.1-.55,1.57-.96l1.03,4.26c-.75.59-1.69,1.06-2.81,1.41s-2.31.52-3.56.52c-1.56,0-2.94-.23-4.14-.7-1.2-.47-2.14-1.22-2.81-2.25-.67-1.03-1.01-2.4-1.01-4.12v-22.2l6.42-1.78Z"/>
        <path class="cls-1" d="M401.9,215.96c-2.47,0-4.61-.48-6.44-1.45-1.83-.97-3.24-2.36-4.24-4.17-1-1.81-1.5-4-1.5-6.56s.5-4.75,1.5-6.56c1-1.81,2.4-3.2,4.19-4.17,1.79-.97,3.85-1.45,6.16-1.45s4.39.48,6.04,1.43c1.65.95,2.92,2.25,3.79,3.89s1.31,3.5,1.31,5.6c0,.62-.02,1.22-.05,1.78-.03.56-.08,1.06-.14,1.5h-18.69v-4.45h15.88l-3.09,1.12c0-1.97-.45-3.48-1.33-4.54s-2.15-1.59-3.77-1.59c-1.19,0-2.21.28-3.07.84-.86.56-1.51,1.4-1.94,2.5-.44,1.11-.66,2.51-.66,4.19s.24,3.02.73,4.1,1.17,1.88,2.06,2.41c.89.53,1.96.8,3.21.8,1.37,0,2.48-.26,3.33-.8.84-.53,1.5-1.26,1.97-2.2l5.1,1.97c-.5,1.22-1.26,2.26-2.27,3.14-1.01.88-2.22,1.54-3.61,1.99-1.39.45-2.88.68-4.47.68Z"/>
        <path class="cls-1" d="M416.98,215.5v-23.42h5.76l.38,7.02-.8-.75c.37-1.53.97-2.79,1.78-3.77.81-.98,1.8-1.72,2.97-2.22,1.17-.5,2.46-.75,3.86-.75,1.62,0,3.07.31,4.33.94,1.26.62,2.26,1.57,3,2.83.73,1.26,1.1,2.85,1.1,4.75v15.36h-6.42v-13.53c0-2-.39-3.38-1.17-4.14-.78-.76-1.79-1.15-3.04-1.15-.87,0-1.72.21-2.55.63-.83.42-1.5,1.1-2.01,2.04-.52.94-.77,2.19-.77,3.75v12.41h-6.42Z"/>
        <path class="cls-1" d="M460.39,192.08v4.78h-18.22v-4.78h18.22ZM452.9,184.92v22.95c0,1.12.29,1.94.87,2.46.58.52,1.37.77,2.37.77.81,0,1.51-.12,2.08-.35.58-.23,1.1-.55,1.57-.96l1.03,4.26c-.75.59-1.69,1.06-2.81,1.41s-2.31.52-3.56.52c-1.56,0-2.94-.23-4.14-.7-1.2-.47-2.14-1.22-2.81-2.25-.67-1.03-1.01-2.4-1.01-4.12v-22.2l6.42-1.78Z"/>
      </g>
    </g>
  </g>
</svg>