<?xml version="1.0" encoding="UTF-8"?>
<svg xmlns="http://www.w3.org/2000/svg" version="1.1" viewBox="0 0 600 400">
  <defs>
    <style>
      .cls-1 {
        fill: #fff;
      }

      .cls-2 {
        fill: #262324;
        opacity: 0;
      }
    </style>
  </defs>
  <!-- Generator: Adobe Illustrator 28.7.1, SVG Export Plug-In . SVG Version: 1.2.0 Build 142)  -->
  <g>
    <g id="Layer_1">
      <rect class="cls-2" width="600" height="400"/>
      <g>
        <path class="cls-1" d="M171.19,184.59l-11.24,30.91h-7.54l-11.29-30.91h6.84l6.51,19.67,1.78,6.09,1.73-6.04,6.56-19.72h6.65Z"/>
        <path class="cls-1" d="M182.39,215.96c-2.47,0-4.61-.48-6.44-1.45-1.83-.97-3.24-2.36-4.24-4.17-1-1.81-1.5-4-1.5-6.56s.5-4.75,1.5-6.56c1-1.81,2.4-3.2,4.19-4.17,1.79-.97,3.85-1.45,6.16-1.45s4.39.48,6.04,1.43c1.65.95,2.92,2.25,3.79,3.89s1.31,3.5,1.31,5.6c0,.62-.02,1.22-.05,1.78-.03.56-.08,1.06-.14,1.5h-18.69v-4.45h15.88l-3.09,1.12c0-1.97-.45-3.48-1.33-4.54s-2.15-1.59-3.77-1.59c-1.19,0-2.21.28-3.07.84-.86.56-1.51,1.4-1.94,2.5-.44,1.11-.66,2.51-.66,4.19s.24,3.02.73,4.1,1.17,1.88,2.06,2.41c.89.53,1.96.8,3.21.8,1.37,0,2.48-.26,3.33-.8.84-.53,1.5-1.26,1.97-2.2l5.1,1.97c-.5,1.22-1.26,2.26-2.27,3.14-1.01.88-2.22,1.54-3.61,1.99-1.39.45-2.88.68-4.47.68Z"/>
        <path class="cls-1" d="M197.47,215.5v-23.42h5.76l.38,7.02-.8-.75c.37-1.53.97-2.79,1.78-3.77.81-.98,1.8-1.72,2.97-2.22,1.17-.5,2.46-.75,3.86-.75,1.62,0,3.07.31,4.33.94,1.26.62,2.26,1.57,3,2.83.73,1.26,1.1,2.85,1.1,4.75v15.36h-6.42v-13.53c0-2-.39-3.38-1.17-4.14-.78-.76-1.79-1.15-3.04-1.15-.87,0-1.72.21-2.55.63-.83.42-1.5,1.1-2.01,2.04-.52.94-.77,2.19-.77,3.75v12.41h-6.42Z"/>
        <path class="cls-1" d="M233.43,215.96c-1.56,0-2.97-.28-4.21-.84-1.25-.56-2.24-1.46-2.97-2.69-.73-1.23-1.1-2.83-1.1-4.8v-15.55h6.42v14c0,1.81.37,3.07,1.12,3.77.75.7,1.83,1.05,3.23,1.05.66,0,1.3-.12,1.92-.35.62-.23,1.18-.6,1.66-1.1.48-.5.87-1.15,1.15-1.94.28-.8.42-1.74.42-2.83v-12.6h6.42v23.42h-5.71l-.23-4.07c-.78,1.56-1.85,2.71-3.21,3.44-1.36.73-2.99,1.1-4.89,1.1Z"/>
        <path class="cls-1" d="M263.92,215.96c-2.47,0-4.61-.48-6.44-1.45-1.83-.97-3.24-2.36-4.24-4.17-1-1.81-1.5-4-1.5-6.56s.5-4.75,1.5-6.56c1-1.81,2.4-3.2,4.19-4.17,1.79-.97,3.85-1.45,6.16-1.45s4.39.48,6.04,1.43c1.65.95,2.92,2.25,3.79,3.89s1.31,3.5,1.31,5.6c0,.62-.02,1.22-.05,1.78-.03.56-.08,1.06-.14,1.5h-18.69v-4.45h15.88l-3.09,1.12c0-1.97-.45-3.48-1.33-4.54s-2.15-1.59-3.77-1.59c-1.19,0-2.21.28-3.07.84-.86.56-1.51,1.4-1.94,2.5-.44,1.11-.66,2.51-.66,4.19s.24,3.02.73,4.1,1.17,1.88,2.06,2.41c.89.53,1.96.8,3.21.8,1.37,0,2.48-.26,3.33-.8.84-.53,1.5-1.26,1.97-2.2l5.1,1.97c-.5,1.22-1.26,2.26-2.27,3.14-1.01.88-2.22,1.54-3.61,1.99-1.39.45-2.88.68-4.47.68Z"/>
        <path class="cls-1" d="M304.1,184.12c2.81,0,5.28.48,7.4,1.45s3.93,2.4,5.43,4.31l-3.61,4.17c-1.28-1.62-2.68-2.82-4.19-3.58-1.51-.76-3.27-1.15-5.27-1.15-1.31,0-2.4.17-3.25.52-.86.34-1.48.8-1.87,1.36-.39.56-.58,1.19-.58,1.87,0,.84.33,1.55.98,2.13s1.78,1.05,3.37,1.43l5.76,1.31c3.06.69,5.25,1.71,6.58,3.07,1.33,1.36,1.99,3.11,1.99,5.27,0,2.03-.53,3.77-1.59,5.22-1.06,1.45-2.54,2.56-4.45,3.33-1.91.76-4.09,1.15-6.56,1.15-2.15,0-4.13-.26-5.92-.77-1.8-.51-3.4-1.22-4.8-2.13-1.4-.91-2.58-1.95-3.51-3.14l3.65-4.35c.72,1,1.61,1.89,2.67,2.67,1.06.78,2.27,1.4,3.63,1.85,1.36.45,2.79.68,4.29.68,1.28,0,2.37-.15,3.25-.45.89-.3,1.56-.72,2.01-1.26.45-.55.68-1.21.68-1.99s-.27-1.51-.82-2.08c-.55-.58-1.55-1.02-3.02-1.33l-6.28-1.4c-1.81-.44-3.36-1.01-4.66-1.71-1.3-.7-2.28-1.61-2.95-2.72-.67-1.11-1.01-2.43-1.01-3.96,0-1.84.5-3.5,1.5-4.96,1-1.47,2.44-2.63,4.33-3.49,1.89-.86,4.16-1.29,6.81-1.29Z"/>
        <path class="cls-1" d="M324.24,188.71c-1.34,0-2.34-.29-3-.87-.66-.58-.98-1.43-.98-2.55s.33-2.02.98-2.6c.66-.58,1.65-.87,3-.87s2.34.29,3,.87c.66.58.98,1.44.98,2.6s-.33,1.98-.98,2.55c-.66.58-1.66.87-3,.87ZM327.42,192.08v23.42h-6.42v-23.42h6.42Z"/>
        <path class="cls-1" d="M346.95,211.09c2.53,0,4.48.55,5.85,1.64,1.37,1.09,2.06,2.62,2.06,4.59,0,1.78-.52,3.29-1.55,4.52-1.03,1.23-2.47,2.16-4.33,2.79-1.86.62-4,.94-6.44.94-4.03,0-6.97-.56-8.83-1.69s-2.79-2.59-2.79-4.4c0-1.28.49-2.36,1.47-3.23.98-.87,2.62-1.36,4.89-1.45l-.23.75c-1.62-.28-2.87-.82-3.72-1.62-.86-.8-1.29-1.9-1.29-3.3s.55-2.62,1.66-3.54c1.11-.92,2.61-1.46,4.52-1.62l2.81,1.31h-.66c-1.34.09-2.29.37-2.83.82s-.82.96-.82,1.52c0,.66.26,1.15.77,1.48.52.33,1.26.49,2.22.49h7.21ZM342.64,191.61c2.19,0,4.08.32,5.69.96,1.61.64,2.84,1.55,3.7,2.74.86,1.19,1.29,2.61,1.29,4.26s-.43,3.03-1.29,4.21c-.86,1.19-2.09,2.1-3.7,2.74-1.61.64-3.5.96-5.69.96-3.46,0-6.12-.71-7.96-2.13-1.84-1.42-2.76-3.35-2.76-5.78,0-1.65.44-3.07,1.31-4.26.87-1.19,2.11-2.1,3.7-2.74,1.59-.64,3.5-.96,5.71-.96ZM342.59,221.16c1.62,0,2.96-.14,4-.42,1.04-.28,1.83-.64,2.34-1.08.52-.44.77-.92.77-1.45,0-.59-.23-1.07-.7-1.43-.47-.36-1.31-.54-2.53-.54h-7.92c-.75,0-1.37.19-1.85.56-.48.37-.73.89-.73,1.54,0,.87.58,1.56,1.76,2.06,1.17.5,2.79.75,4.85.75ZM342.64,195.64c-1.25,0-2.28.34-3.09,1.03-.81.69-1.22,1.64-1.22,2.86s.41,2.18,1.22,2.88c.81.7,1.84,1.05,3.09,1.05s2.27-.35,3.07-1.05c.8-.7,1.19-1.66,1.19-2.88s-.4-2.17-1.19-2.86c-.8-.69-1.82-1.03-3.07-1.03ZM354.63,186.51l.75,4.59c-.12,0-.26,0-.4-.02-.14-.02-.29-.02-.45-.02-1.41,0-2.47.32-3.21.96s-1.1,1.52-1.1,2.65l-2.62-1.08c0-1.25.25-2.41.75-3.49.5-1.08,1.24-1.94,2.22-2.6s2.16-.98,3.54-.98h.52Z"/>
        <path class="cls-1" d="M357.58,215.5v-23.42h5.76l.38,7.02-.8-.75c.37-1.53.97-2.79,1.78-3.77.81-.98,1.8-1.72,2.97-2.22,1.17-.5,2.46-.75,3.86-.75,1.62,0,3.07.31,4.33.94,1.26.62,2.26,1.57,3,2.83.73,1.26,1.1,2.85,1.1,4.75v15.36h-6.42v-13.53c0-2-.39-3.38-1.17-4.14-.78-.76-1.79-1.15-3.04-1.15-.87,0-1.72.21-2.55.63-.83.42-1.5,1.1-2.01,2.04-.52.94-.77,2.19-.77,3.75v12.41h-6.42Z"/>
        <path class="cls-1" d="M398.74,200.56c0-1.34-.38-2.39-1.15-3.14-.77-.75-1.77-1.12-3.02-1.12-1.16,0-2.17.3-3.04.89-.88.59-1.51,1.58-1.92,2.95l-5.48-1.69c.53-2.06,1.69-3.71,3.49-4.96,1.79-1.25,4.21-1.87,7.24-1.87,2.06,0,3.86.32,5.38.96,1.53.64,2.72,1.6,3.58,2.88.86,1.28,1.29,2.89,1.29,4.82v9.51c0,1.19.56,1.78,1.69,1.78.53,0,1.03-.08,1.5-.23l-.38,3.98c-.81.41-1.83.61-3.04.61-1.09,0-2.08-.19-2.95-.56-.88-.38-1.56-.94-2.06-1.71-.5-.76-.75-1.72-.75-2.88v-.19l1.12-.19c-.19,1.19-.7,2.19-1.54,3.02s-1.87,1.46-3.07,1.9c-1.2.44-2.44.66-3.72.66-1.59,0-2.97-.24-4.12-.73-1.16-.48-2.04-1.19-2.67-2.13-.62-.94-.94-2.09-.94-3.46,0-1.75.56-3.18,1.69-4.29s2.73-1.87,4.82-2.27l8.8-1.78-.05,3.98-5.62,1.12c-1.06.22-1.87.51-2.41.87-.55.36-.82.94-.82,1.76s.29,1.37.87,1.78c.58.41,1.27.61,2.08.61.66,0,1.29-.08,1.92-.23.62-.16,1.19-.41,1.69-.75s.89-.81,1.17-1.41c.28-.59.42-1.31.42-2.15v-6.32Z"/>
        <path class="cls-1" d="M425.15,211.09c2.53,0,4.48.55,5.85,1.64,1.37,1.09,2.06,2.62,2.06,4.59,0,1.78-.52,3.29-1.55,4.52-1.03,1.23-2.47,2.16-4.33,2.79-1.86.62-4,.94-6.44.94-4.03,0-6.97-.56-8.83-1.69s-2.79-2.59-2.79-4.4c0-1.28.49-2.36,1.47-3.23.98-.87,2.62-1.36,4.89-1.45l-.23.75c-1.62-.28-2.87-.82-3.72-1.62-.86-.8-1.29-1.9-1.29-3.3s.55-2.62,1.66-3.54c1.11-.92,2.61-1.46,4.52-1.62l2.81,1.31h-.66c-1.34.09-2.29.37-2.83.82s-.82.96-.82,1.52c0,.66.26,1.15.77,1.48.52.33,1.26.49,2.22.49h7.21ZM420.84,191.61c2.19,0,4.08.32,5.69.96,1.61.64,2.84,1.55,3.7,2.74.86,1.19,1.29,2.61,1.29,4.26s-.43,3.03-1.29,4.21c-.86,1.19-2.09,2.1-3.7,2.74-1.61.64-3.5.96-5.69.96-3.46,0-6.12-.71-7.96-2.13-1.84-1.42-2.76-3.35-2.76-5.78,0-1.65.44-3.07,1.31-4.26.87-1.19,2.11-2.1,3.7-2.74,1.59-.64,3.5-.96,5.71-.96ZM420.8,221.16c1.62,0,2.96-.14,4-.42,1.04-.28,1.83-.64,2.34-1.08.52-.44.77-.92.77-1.45,0-.59-.23-1.07-.7-1.43-.47-.36-1.31-.54-2.53-.54h-7.92c-.75,0-1.37.19-1.85.56-.48.37-.73.89-.73,1.54,0,.87.58,1.56,1.76,2.06,1.17.5,2.79.75,4.85.75ZM420.84,195.64c-1.25,0-2.28.34-3.09,1.03-.81.69-1.22,1.64-1.22,2.86s.41,2.18,1.22,2.88c.81.7,1.84,1.05,3.09,1.05s2.27-.35,3.07-1.05c.8-.7,1.19-1.66,1.19-2.88s-.4-2.17-1.19-2.86c-.8-.69-1.82-1.03-3.07-1.03ZM432.83,186.51l.75,4.59c-.12,0-.26,0-.4-.02-.14-.02-.29-.02-.45-.02-1.41,0-2.47.32-3.21.96s-1.1,1.52-1.1,2.65l-2.62-1.08c0-1.25.25-2.41.75-3.49.5-1.08,1.24-1.94,2.22-2.6s2.16-.98,3.54-.98h.52Z"/>
        <path class="cls-1" d="M446.65,215.96c-2.47,0-4.61-.48-6.44-1.45-1.83-.97-3.24-2.36-4.24-4.17-1-1.81-1.5-4-1.5-6.56s.5-4.75,1.5-6.56c1-1.81,2.4-3.2,4.19-4.17,1.79-.97,3.85-1.45,6.16-1.45s4.39.48,6.04,1.43c1.65.95,2.92,2.25,3.79,3.89s1.31,3.5,1.31,5.6c0,.62-.02,1.22-.05,1.78-.03.56-.08,1.06-.14,1.5h-18.69v-4.45h15.88l-3.09,1.12c0-1.97-.45-3.48-1.33-4.54s-2.15-1.59-3.77-1.59c-1.19,0-2.21.28-3.07.84-.86.56-1.51,1.4-1.94,2.5-.44,1.11-.66,2.51-.66,4.19s.24,3.02.73,4.1,1.17,1.88,2.06,2.41c.89.53,1.96.8,3.21.8,1.37,0,2.48-.26,3.33-.8.84-.53,1.5-1.26,1.97-2.2l5.1,1.97c-.5,1.22-1.26,2.26-2.27,3.14-1.01.88-2.22,1.54-3.61,1.99-1.39.45-2.88.68-4.47.68Z"/>
      </g>
    </g>
  </g>
</svg>