<?xml version="1.0" encoding="UTF-8"?>
<svg xmlns="http://www.w3.org/2000/svg" version="1.1" viewBox="0 0 600 400">
  <defs>
    <style>
      .cls-1 {
        fill: #fff;
      }

      .cls-2 {
        fill: #262324;
        opacity: 0;
      }
    </style>
  </defs>
  <!-- Generator: Adobe Illustrator 28.7.1, SVG Export Plug-In . SVG Version: 1.2.0 Build 142)  -->
  <g>
    <g id="Layer_1">
      <rect class="cls-2" width="600" height="400"/>
      <g>
        <path class="cls-1" d="M107.71,189.79h-16.67v7.82h13.16v5.25h-13.16v12.64h-6.46v-30.91h23.13v5.2Z"/>
        <path class="cls-1" d="M119.66,191.61c2.37,0,4.46.48,6.25,1.45s3.2,2.36,4.21,4.17c1.01,1.81,1.52,4,1.52,6.56s-.51,4.71-1.52,6.53c-1.02,1.83-2.42,3.22-4.21,4.19s-3.88,1.45-6.25,1.45-4.42-.48-6.23-1.45-3.22-2.37-4.24-4.19c-1.01-1.83-1.52-4-1.52-6.53s.51-4.75,1.52-6.56c1.01-1.81,2.43-3.2,4.24-4.17s3.89-1.45,6.23-1.45ZM119.66,196.39c-1.19,0-2.19.27-3.02.82-.83.55-1.46,1.37-1.9,2.46-.44,1.09-.65,2.47-.65,4.12s.22,3.03.65,4.12c.44,1.09,1.07,1.91,1.9,2.46.83.55,1.83.82,3.02.82s2.15-.27,2.97-.82c.83-.55,1.46-1.37,1.9-2.46.44-1.09.65-2.47.65-4.12s-.22-3.03-.65-4.12c-.44-1.09-1.07-1.91-1.9-2.46-.83-.55-1.82-.82-2.97-.82Z"/>
        <path class="cls-1" d="M146.54,191.61c2.37,0,4.46.48,6.25,1.45s3.2,2.36,4.21,4.17,1.52,4,1.52,6.56-.51,4.71-1.52,6.53-2.42,3.22-4.21,4.19-3.88,1.45-6.25,1.45-4.42-.48-6.23-1.45-3.22-2.37-4.24-4.19c-1.02-1.83-1.52-4-1.52-6.53s.51-4.75,1.52-6.56c1.01-1.81,2.43-3.2,4.24-4.17s3.89-1.45,6.23-1.45ZM146.54,196.39c-1.19,0-2.19.27-3.02.82s-1.46,1.37-1.9,2.46c-.44,1.09-.66,2.47-.66,4.12s.22,3.03.66,4.12c.44,1.09,1.07,1.91,1.9,2.46.83.55,1.83.82,3.02.82s2.15-.27,2.97-.82c.83-.55,1.46-1.37,1.9-2.46.44-1.09.66-2.47.66-4.12s-.22-3.03-.66-4.12c-.44-1.09-1.07-1.91-1.9-2.46-.83-.55-1.82-.82-2.97-.82Z"/>
        <path class="cls-1" d="M171.59,215.96c-1.94,0-3.66-.48-5.17-1.45-1.51-.97-2.7-2.36-3.56-4.17-.86-1.81-1.29-3.98-1.29-6.51s.45-4.8,1.36-6.63c.9-1.83,2.13-3.22,3.68-4.17,1.55-.95,3.29-1.43,5.22-1.43,2.06,0,3.76.59,5.1,1.78,1.34,1.19,2.22,2.72,2.62,4.59l-.61.75v-16.91h6.42v33.67h-5.76l-.42-7.12.75.38c-.19,1.47-.67,2.74-1.45,3.82-.78,1.08-1.76,1.91-2.95,2.5s-2.5.89-3.93.89ZM173.46,211.05c1.12,0,2.09-.29,2.9-.87.81-.58,1.44-1.43,1.9-2.55.45-1.12.68-2.47.68-4.03s-.22-2.77-.66-3.82c-.44-1.05-1.06-1.85-1.87-2.41-.81-.56-1.76-.84-2.86-.84-1.75,0-3.11.62-4.1,1.85s-1.47,3.04-1.47,5.41.48,4.18,1.45,5.41c.97,1.23,2.31,1.85,4.03,1.85Z"/>
        <path class="cls-1" d="M212.8,215.96c-2.12,0-3.97-.34-5.55-1.01-1.58-.67-2.79-1.64-3.65-2.9-.86-1.26-1.29-2.79-1.29-4.57,0-.91.12-1.81.38-2.72.25-.91.69-1.77,1.33-2.6.64-.83,1.51-1.58,2.62-2.27,1.11-.69,2.52-1.23,4.24-1.64l1.64-.66c1.28-.75,2.29-1.43,3.04-2.04.75-.61,1.29-1.23,1.62-1.87.33-.64.49-1.37.49-2.18,0-.91-.28-1.62-.84-2.13-.56-.51-1.31-.77-2.25-.77-1.06,0-1.87.3-2.41.91-.55.61-.82,1.37-.82,2.27,0,.53.08,1.05.26,1.54.17.5.51,1.12,1.01,1.85.5.73,1.24,1.69,2.22,2.88s2.3,2.73,3.96,4.64c1.65,1.87,3.03,3.4,4.12,4.59,1.09,1.19,2.04,2.08,2.83,2.69.8.61,1.56,1.02,2.29,1.22.73.2,1.57.26,2.5.16l-.8,4.59c-1.16,0-2.19-.1-3.11-.3-.92-.2-1.88-.62-2.88-1.26-1-.64-2.16-1.6-3.49-2.88s-2.94-3-4.85-5.15c-2-2.19-3.63-4.01-4.89-5.48-1.26-1.47-2.24-2.72-2.93-3.75s-1.17-1.97-1.45-2.81c-.28-.84-.42-1.73-.42-2.67,0-1.25.31-2.45.94-3.61.62-1.16,1.59-2.1,2.9-2.83,1.31-.73,3-1.1,5.06-1.1,1.84,0,3.36.31,4.57.94,1.2.62,2.11,1.45,2.72,2.48.61,1.03.91,2.19.91,3.47s-.27,2.48-.8,3.61-1.41,2.14-2.65,3.04c-1.23.91-2.91,1.73-5.03,2.48l-1.5.75c-1.28.66-2.28,1.28-3,1.87-.72.59-1.22,1.23-1.5,1.9-.28.67-.42,1.46-.42,2.37s.25,1.7.75,2.39,1.17,1.22,2.01,1.59c.84.38,1.81.56,2.9.56,1.56,0,2.9-.26,4.03-.8s2.18-1.25,3.18-2.15l.7-.8c.66-1.09,1.18-2.33,1.57-3.7.39-1.37.54-2.95.45-4.73l4.54.19c.06,2-.21,3.9-.82,5.71-.61,1.81-1.54,3.4-2.79,4.78l-1.12,1.08c-1.09,1.47-2.52,2.64-4.29,3.51-1.76.87-3.85,1.31-6.25,1.31Z"/>
        <path class="cls-1" d="M258.56,184.59c4.84,0,8.58,1.33,11.24,4,2.65,2.67,3.98,6.49,3.98,11.45s-1.33,8.74-3.98,11.43c-2.65,2.69-6.4,4.03-11.24,4.03h-11.94v-30.91h11.94ZM258.23,210.34c2.93,0,5.14-.88,6.63-2.65,1.48-1.76,2.22-4.32,2.22-7.66s-.74-5.89-2.22-7.66c-1.48-1.76-3.69-2.65-6.63-2.65h-5.15v20.61h5.15Z"/>
        <path class="cls-1" d="M278.32,215.5v-23.42h5.57l.42,4.59c.62-1.62,1.54-2.87,2.74-3.75s2.71-1.31,4.52-1.31c.53,0,1.01.05,1.45.14.44.09.8.22,1.08.38l-.75,5.38c-.31-.12-.7-.22-1.15-.28s-1.04-.09-1.76-.09c-.94,0-1.84.23-2.72.68-.88.45-1.59,1.14-2.15,2.06-.56.92-.84,2.08-.84,3.49v12.13h-6.42Z"/>
        <path class="cls-1" d="M300.14,188.71c-1.34,0-2.34-.29-3-.87-.66-.58-.98-1.43-.98-2.55s.33-2.02.98-2.6c.66-.58,1.65-.87,3-.87s2.34.29,3,.87c.66.58.98,1.44.98,2.6s-.33,1.98-.98,2.55c-.66.58-1.66.87-3,.87ZM303.33,192.08v23.42h-6.42v-23.42h6.42Z"/>
        <path class="cls-1" d="M308.95,215.5v-23.42h5.76l.38,7.02-.8-.75c.37-1.53.97-2.79,1.78-3.77.81-.98,1.8-1.72,2.97-2.22,1.17-.5,2.46-.75,3.86-.75,1.62,0,3.07.31,4.33.94,1.26.62,2.26,1.57,3,2.83.73,1.26,1.1,2.85,1.1,4.75v15.36h-6.42v-13.53c0-2-.39-3.38-1.17-4.14-.78-.76-1.79-1.15-3.04-1.15-.87,0-1.72.21-2.55.63-.83.42-1.5,1.1-2.01,2.04-.52.94-.77,2.19-.77,3.75v12.41h-6.42Z"/>
        <path class="cls-1" d="M343.18,181.83v33.67h-6.42v-33.67h6.42ZM360.6,192.08l-10.82,11.29-1.26.61-7.02,7.54-.09-6.84,11.9-12.6h7.31ZM350.67,199.53l10.49,15.97h-7.26l-7.63-12.22,4.4-3.75Z"/>
        <path class="cls-1" d="M410.43,184.59v30.91h-5.81v-16.11l.28-9.04h-.09l-8.57,25.15h-5.29l-8.52-25.15h-.09l.33,9.04v16.11h-5.85v-30.91h9.37l5.57,16.86,1.97,6.98h.09l2.01-6.93,5.53-16.91h9.09Z"/>
        <path class="cls-1" d="M427.29,215.96c-2.47,0-4.61-.48-6.44-1.45-1.83-.97-3.24-2.36-4.24-4.17-1-1.81-1.5-4-1.5-6.56s.5-4.75,1.5-6.56c1-1.81,2.4-3.2,4.19-4.17,1.79-.97,3.85-1.45,6.16-1.45s4.39.48,6.04,1.43c1.65.95,2.92,2.25,3.79,3.89s1.31,3.5,1.31,5.6c0,.62-.02,1.22-.05,1.78-.03.56-.08,1.06-.14,1.5h-18.69v-4.45h15.88l-3.09,1.12c0-1.97-.45-3.48-1.33-4.54s-2.15-1.59-3.77-1.59c-1.19,0-2.21.28-3.07.84-.86.56-1.51,1.4-1.94,2.5-.44,1.11-.66,2.51-.66,4.19s.24,3.02.73,4.1,1.17,1.88,2.06,2.41c.89.53,1.96.8,3.21.8,1.37,0,2.48-.26,3.33-.8.84-.53,1.5-1.26,1.97-2.2l5.1,1.97c-.5,1.22-1.26,2.26-2.27,3.14-1.01.88-2.22,1.54-3.61,1.99-1.39.45-2.88.68-4.47.68Z"/>
        <path class="cls-1" d="M442.37,215.5v-23.42h5.76l.38,7.02-.8-.75c.37-1.53.97-2.79,1.78-3.77.81-.98,1.8-1.72,2.97-2.22,1.17-.5,2.46-.75,3.86-.75,1.62,0,3.07.31,4.33.94,1.26.62,2.26,1.57,3,2.83.73,1.26,1.1,2.85,1.1,4.75v15.36h-6.42v-13.53c0-2-.39-3.38-1.17-4.14-.78-.76-1.79-1.15-3.04-1.15-.87,0-1.72.21-2.55.63-.83.42-1.5,1.1-2.01,2.04-.52.94-.77,2.19-.77,3.75v12.41h-6.42Z"/>
        <path class="cls-1" d="M478.33,215.96c-1.56,0-2.97-.28-4.21-.84-1.25-.56-2.24-1.46-2.97-2.69-.73-1.23-1.1-2.83-1.1-4.8v-15.55h6.42v14c0,1.81.37,3.07,1.12,3.77.75.7,1.83,1.05,3.23,1.05.66,0,1.3-.12,1.92-.35.62-.23,1.18-.6,1.66-1.1.48-.5.87-1.15,1.15-1.94.28-.8.42-1.74.42-2.83v-12.6h6.42v23.42h-5.71l-.23-4.07c-.78,1.56-1.85,2.71-3.21,3.44-1.36.73-2.99,1.1-4.89,1.1Z"/>
        <path class="cls-1" d="M507.32,215.96c-2.37,0-4.54-.42-6.49-1.26s-3.54-2.03-4.75-3.56l3.7-3.75c.75,1.12,1.75,2.04,3,2.76,1.25.72,2.73,1.08,4.45,1.08,1.22,0,2.19-.18,2.93-.54.73-.36,1.1-.93,1.1-1.71,0-.5-.17-.93-.52-1.29-.34-.36-1.03-.65-2.06-.87l-4.12-.84c-2.72-.56-4.64-1.41-5.78-2.55s-1.71-2.62-1.71-4.43c0-1.28.38-2.48,1.15-3.61.77-1.12,1.91-2.04,3.44-2.74,1.53-.7,3.43-1.05,5.71-1.05s4.38.37,6.11,1.1c1.73.73,3.1,1.82,4.1,3.25l-3.84,3.75c-.69-1.09-1.58-1.93-2.69-2.5s-2.27-.87-3.49-.87c-.87,0-1.62.09-2.25.28-.62.19-1.09.45-1.41.77-.31.33-.47.74-.47,1.24s.22.93.66,1.29c.44.36,1.23.66,2.39.91l4.78.98c2.31.47,3.96,1.26,4.96,2.37s1.5,2.44,1.5,4-.4,2.83-1.19,4-1.97,2.09-3.51,2.76c-1.54.67-3.44,1.01-5.69,1.01Z"/>
      </g>
    </g>
  </g>
</svg>