<?xml version="1.0" encoding="UTF-8"?>
<svg xmlns="http://www.w3.org/2000/svg" version="1.1" viewBox="0 0 600 400">
  <defs>
    <style>
      .cls-1 {
        fill: #fff;
      }

      .cls-2 {
        fill: #262324;
        opacity: 0;
      }
    </style>
  </defs>
  <!-- Generator: Adobe Illustrator 28.7.1, SVG Export Plug-In . SVG Version: 1.2.0 Build 142)  -->
  <g>
    <g id="Layer_1">
      <rect class="cls-2" width="600" height="400"/>
      <g>
        <path class="cls-1" d="M87.11,184.59l-11.24,30.91h-7.54l-11.29-30.91h6.84l6.51,19.67,1.78,6.09,1.73-6.04,6.56-19.72h6.65Z"/>
        <path class="cls-1" d="M98.3,215.96c-2.47,0-4.61-.48-6.44-1.45s-3.24-2.36-4.24-4.17-1.5-4-1.5-6.56.5-4.75,1.5-6.56,2.4-3.2,4.19-4.17c1.79-.97,3.85-1.45,6.16-1.45s4.39.48,6.04,1.43c1.66.95,2.92,2.25,3.79,3.89.87,1.64,1.31,3.5,1.31,5.6,0,.62-.02,1.22-.05,1.78-.03.56-.08,1.06-.14,1.5h-18.69v-4.45h15.88l-3.09,1.12c0-1.97-.44-3.48-1.33-4.54s-2.15-1.59-3.77-1.59c-1.19,0-2.21.28-3.07.84-.86.56-1.51,1.4-1.94,2.5-.44,1.11-.66,2.51-.66,4.19s.24,3.02.73,4.1c.48,1.08,1.17,1.88,2.06,2.41.89.53,1.96.8,3.21.8,1.37,0,2.48-.26,3.33-.8.84-.53,1.5-1.26,1.97-2.2l5.1,1.97c-.5,1.22-1.26,2.26-2.27,3.14-1.01.88-2.22,1.54-3.61,1.99-1.39.45-2.88.68-4.47.68Z"/>
        <path class="cls-1" d="M113.38,215.5v-23.42h5.76l.38,7.02-.8-.75c.37-1.53.97-2.79,1.78-3.77.81-.98,1.8-1.72,2.97-2.22,1.17-.5,2.46-.75,3.86-.75,1.62,0,3.07.31,4.33.94,1.26.62,2.26,1.57,3,2.83.73,1.26,1.1,2.85,1.1,4.75v15.36h-6.42v-13.53c0-2-.39-3.38-1.17-4.14-.78-.76-1.79-1.15-3.04-1.15-.87,0-1.72.21-2.55.63-.83.42-1.5,1.1-2.01,2.04-.52.94-.77,2.19-.77,3.75v12.41h-6.42Z"/>
        <path class="cls-1" d="M149.35,215.96c-1.56,0-2.97-.28-4.21-.84-1.25-.56-2.24-1.46-2.97-2.69-.73-1.23-1.1-2.83-1.1-4.8v-15.55h6.42v14c0,1.81.37,3.07,1.12,3.77.75.7,1.83,1.05,3.23,1.05.66,0,1.3-.12,1.92-.35.62-.23,1.18-.6,1.66-1.1.48-.5.87-1.15,1.15-1.94.28-.8.42-1.74.42-2.83v-12.6h6.42v23.42h-5.71l-.23-4.07c-.78,1.56-1.85,2.71-3.21,3.44-1.36.73-2.99,1.1-4.89,1.1Z"/>
        <path class="cls-1" d="M179.83,215.96c-2.47,0-4.61-.48-6.44-1.45-1.83-.97-3.24-2.36-4.24-4.17-1-1.81-1.5-4-1.5-6.56s.5-4.75,1.5-6.56c1-1.81,2.4-3.2,4.19-4.17,1.79-.97,3.85-1.45,6.16-1.45s4.39.48,6.04,1.43c1.65.95,2.92,2.25,3.79,3.89s1.31,3.5,1.31,5.6c0,.62-.02,1.22-.05,1.78-.03.56-.08,1.06-.14,1.5h-18.69v-4.45h15.88l-3.09,1.12c0-1.97-.45-3.48-1.33-4.54s-2.15-1.59-3.77-1.59c-1.19,0-2.21.28-3.07.84-.86.56-1.51,1.4-1.94,2.5-.44,1.11-.66,2.51-.66,4.19s.24,3.02.73,4.1,1.17,1.88,2.06,2.41c.89.53,1.96.8,3.21.8,1.37,0,2.48-.26,3.33-.8.84-.53,1.5-1.26,1.97-2.2l5.1,1.97c-.5,1.22-1.26,2.26-2.27,3.14-1.01.88-2.22,1.54-3.61,1.99-1.39.45-2.88.68-4.47.68Z"/>
        <path class="cls-1" d="M216.78,215.96c-2.12,0-3.97-.34-5.55-1.01-1.58-.67-2.79-1.64-3.65-2.9-.86-1.26-1.29-2.79-1.29-4.57,0-.91.12-1.81.38-2.72.25-.91.69-1.77,1.33-2.6.64-.83,1.51-1.58,2.62-2.27,1.11-.69,2.52-1.23,4.24-1.64l1.64-.66c1.28-.75,2.29-1.43,3.04-2.04.75-.61,1.29-1.23,1.62-1.87.33-.64.49-1.37.49-2.18,0-.91-.28-1.62-.84-2.13-.56-.51-1.31-.77-2.25-.77-1.06,0-1.87.3-2.41.91-.55.61-.82,1.37-.82,2.27,0,.53.08,1.05.26,1.54.17.5.51,1.12,1.01,1.85.5.73,1.24,1.69,2.22,2.88s2.3,2.73,3.96,4.64c1.65,1.87,3.03,3.4,4.12,4.59,1.09,1.19,2.04,2.08,2.83,2.69.8.61,1.56,1.02,2.29,1.22.73.2,1.57.26,2.5.16l-.8,4.59c-1.16,0-2.19-.1-3.11-.3-.92-.2-1.88-.62-2.88-1.26-1-.64-2.16-1.6-3.49-2.88s-2.94-3-4.85-5.15c-2-2.19-3.63-4.01-4.89-5.48-1.26-1.47-2.24-2.72-2.93-3.75s-1.17-1.97-1.45-2.81c-.28-.84-.42-1.73-.42-2.67,0-1.25.31-2.45.94-3.61.62-1.16,1.59-2.1,2.9-2.83,1.31-.73,3-1.1,5.06-1.1,1.84,0,3.36.31,4.57.94,1.2.62,2.11,1.45,2.72,2.48.61,1.03.91,2.19.91,3.47s-.27,2.48-.8,3.61-1.41,2.14-2.65,3.04c-1.23.91-2.91,1.73-5.03,2.48l-1.5.75c-1.28.66-2.28,1.28-3,1.87-.72.59-1.22,1.23-1.5,1.9-.28.67-.42,1.46-.42,2.37s.25,1.7.75,2.39,1.17,1.22,2.01,1.59c.84.38,1.81.56,2.9.56,1.56,0,2.9-.26,4.03-.8s2.18-1.25,3.18-2.15l.7-.8c.66-1.09,1.18-2.33,1.57-3.7.39-1.37.54-2.95.45-4.73l4.54.19c.06,2-.21,3.9-.82,5.71-.61,1.81-1.54,3.4-2.79,4.78l-1.12,1.08c-1.09,1.47-2.52,2.64-4.29,3.51-1.76.87-3.85,1.31-6.25,1.31Z"/>
        <path class="cls-1" d="M263.57,184.59c2.37,0,4.4.4,6.09,1.19,1.69.8,2.99,1.94,3.91,3.42.92,1.48,1.38,3.27,1.38,5.36s-.46,3.88-1.38,5.36c-.92,1.48-2.22,2.62-3.91,3.42-1.69.8-3.72,1.19-6.09,1.19h-6.51v10.96h-6.46v-30.91h12.97ZM262.58,199.43c1.93,0,3.39-.41,4.35-1.24s1.45-2.04,1.45-3.63-.48-2.84-1.45-3.65-2.42-1.22-4.35-1.22h-5.53v9.74h5.53Z"/>
        <path class="cls-1" d="M292.37,200.56c0-1.34-.38-2.39-1.15-3.14-.77-.75-1.77-1.12-3.02-1.12-1.16,0-2.17.3-3.04.89-.88.59-1.51,1.58-1.92,2.95l-5.48-1.69c.53-2.06,1.69-3.71,3.49-4.96,1.79-1.25,4.21-1.87,7.24-1.87,2.06,0,3.86.32,5.38.96,1.53.64,2.72,1.6,3.58,2.88.86,1.28,1.29,2.89,1.29,4.82v9.51c0,1.19.56,1.78,1.69,1.78.53,0,1.03-.08,1.5-.23l-.38,3.98c-.81.41-1.83.61-3.04.61-1.09,0-2.08-.19-2.95-.56-.88-.38-1.56-.94-2.06-1.71-.5-.76-.75-1.72-.75-2.88v-.19l1.12-.19c-.19,1.19-.7,2.19-1.54,3.02s-1.87,1.46-3.07,1.9c-1.2.44-2.44.66-3.72.66-1.59,0-2.97-.24-4.12-.73-1.16-.48-2.04-1.19-2.67-2.13-.62-.94-.94-2.09-.94-3.46,0-1.75.56-3.18,1.69-4.29s2.73-1.87,4.82-2.27l8.8-1.78-.05,3.98-5.62,1.12c-1.06.22-1.87.51-2.41.87-.55.36-.82.94-.82,1.76s.29,1.37.87,1.78c.58.41,1.27.61,2.08.61.66,0,1.29-.08,1.92-.23.62-.16,1.19-.41,1.69-.75s.89-.81,1.17-1.41c.28-.59.42-1.31.42-2.15v-6.32Z"/>
        <path class="cls-1" d="M304.73,215.5v-23.42h5.57l.42,4.59c.62-1.62,1.54-2.87,2.74-3.75s2.71-1.31,4.52-1.31c.53,0,1.01.05,1.45.14.44.09.8.22,1.08.38l-.75,5.38c-.31-.12-.7-.22-1.15-.28s-1.04-.09-1.76-.09c-.94,0-1.84.23-2.72.68-.88.45-1.59,1.14-2.15,2.06-.56.92-.84,2.08-.84,3.49v12.13h-6.42Z"/>
        <path class="cls-1" d="M329.74,181.83v33.67h-6.42v-33.67h6.42ZM347.16,192.08l-10.82,11.29-1.26.61-7.02,7.54-.09-6.84,11.9-12.6h7.31ZM337.23,199.53l10.49,15.97h-7.26l-7.63-12.22,4.4-3.75Z"/>
        <path class="cls-1" d="M353.57,188.71c-1.34,0-2.34-.29-3-.87-.66-.58-.98-1.43-.98-2.55s.33-2.02.98-2.6c.66-.58,1.65-.87,3-.87s2.34.29,3,.87c.66.58.98,1.44.98,2.6s-.33,1.98-.98,2.55c-.66.58-1.66.87-3,.87ZM356.76,192.08v23.42h-6.42v-23.42h6.42Z"/>
        <path class="cls-1" d="M362.38,215.5v-23.42h5.76l.38,7.02-.8-.75c.37-1.53.97-2.79,1.78-3.77.81-.98,1.8-1.72,2.97-2.22,1.17-.5,2.46-.75,3.86-.75,1.62,0,3.07.31,4.33.94,1.26.62,2.26,1.57,3,2.83.73,1.26,1.1,2.85,1.1,4.75v15.36h-6.42v-13.53c0-2-.39-3.38-1.17-4.14-.78-.76-1.79-1.15-3.04-1.15-.87,0-1.72.21-2.55.63-.83.42-1.5,1.1-2.01,2.04-.52.94-.77,2.19-.77,3.75v12.41h-6.42Z"/>
        <path class="cls-1" d="M404.1,211.09c2.53,0,4.48.55,5.85,1.64,1.37,1.09,2.06,2.62,2.06,4.59,0,1.78-.52,3.29-1.55,4.52-1.03,1.23-2.47,2.16-4.33,2.79-1.86.62-4,.94-6.44.94-4.03,0-6.97-.56-8.83-1.69s-2.79-2.59-2.79-4.4c0-1.28.49-2.36,1.47-3.23.98-.87,2.62-1.36,4.89-1.45l-.23.75c-1.62-.28-2.87-.82-3.72-1.62-.86-.8-1.29-1.9-1.29-3.3s.55-2.62,1.66-3.54c1.11-.92,2.61-1.46,4.52-1.62l2.81,1.31h-.66c-1.34.09-2.29.37-2.83.82s-.82.96-.82,1.52c0,.66.26,1.15.77,1.48.52.33,1.26.49,2.22.49h7.21ZM399.79,191.61c2.19,0,4.08.32,5.69.96,1.61.64,2.84,1.55,3.7,2.74.86,1.19,1.29,2.61,1.29,4.26s-.43,3.03-1.29,4.21c-.86,1.19-2.09,2.1-3.7,2.74-1.61.64-3.5.96-5.69.96-3.46,0-6.12-.71-7.96-2.13-1.84-1.42-2.76-3.35-2.76-5.78,0-1.65.44-3.07,1.31-4.26.87-1.19,2.11-2.1,3.7-2.74,1.59-.64,3.5-.96,5.71-.96ZM399.75,221.16c1.62,0,2.96-.14,4-.42,1.04-.28,1.83-.64,2.34-1.08.52-.44.77-.92.77-1.45,0-.59-.23-1.07-.7-1.43-.47-.36-1.31-.54-2.53-.54h-7.92c-.75,0-1.37.19-1.85.56-.48.37-.73.89-.73,1.54,0,.87.58,1.56,1.76,2.06,1.17.5,2.79.75,4.85.75ZM399.79,195.64c-1.25,0-2.28.34-3.09,1.03-.81.69-1.22,1.64-1.22,2.86s.41,2.18,1.22,2.88c.81.7,1.84,1.05,3.09,1.05s2.27-.35,3.07-1.05c.8-.7,1.19-1.66,1.19-2.88s-.4-2.17-1.19-2.86c-.8-.69-1.82-1.03-3.07-1.03ZM411.78,186.51l.75,4.59c-.12,0-.26,0-.4-.02-.14-.02-.29-.02-.45-.02-1.41,0-2.47.32-3.21.96s-1.1,1.52-1.1,2.65l-2.62-1.08c0-1.25.25-2.41.75-3.49.5-1.08,1.24-1.94,2.22-2.6s2.16-.98,3.54-.98h.52Z"/>
        <path class="cls-1" d="M462.17,184.59v30.91h-5.81v-16.11l.28-9.04h-.09l-8.57,25.15h-5.29l-8.52-25.15h-.09l.33,9.04v16.11h-5.85v-30.91h9.37l5.57,16.86,1.97,6.98h.09l2.01-6.93,5.53-16.91h9.09Z"/>
        <path class="cls-1" d="M481.56,200.56c0-1.34-.38-2.39-1.15-3.14-.77-.75-1.77-1.12-3.02-1.12-1.16,0-2.17.3-3.04.89-.88.59-1.51,1.58-1.92,2.95l-5.48-1.69c.53-2.06,1.69-3.71,3.49-4.96,1.79-1.25,4.21-1.87,7.24-1.87,2.06,0,3.86.32,5.38.96,1.53.64,2.72,1.6,3.58,2.88.86,1.28,1.29,2.89,1.29,4.82v9.51c0,1.19.56,1.78,1.69,1.78.53,0,1.03-.08,1.5-.23l-.38,3.98c-.81.41-1.83.61-3.04.61-1.09,0-2.08-.19-2.95-.56-.88-.38-1.56-.94-2.06-1.71-.5-.76-.75-1.72-.75-2.88v-.19l1.12-.19c-.19,1.19-.7,2.19-1.54,3.02s-1.87,1.46-3.07,1.9c-1.2.44-2.44.66-3.72.66-1.59,0-2.97-.24-4.12-.73-1.16-.48-2.04-1.19-2.67-2.13-.62-.94-.94-2.09-.94-3.46,0-1.75.56-3.18,1.69-4.29s2.73-1.87,4.82-2.27l8.8-1.78-.05,3.98-5.62,1.12c-1.06.22-1.87.51-2.41.87-.55.36-.82.94-.82,1.76s.29,1.37.87,1.78c.58.41,1.27.61,2.08.61.66,0,1.29-.08,1.92-.23.62-.16,1.19-.41,1.69-.75s.89-.81,1.17-1.41c.28-.59.42-1.31.42-2.15v-6.32Z"/>
        <path class="cls-1" d="M493.92,225.33v-33.25h5.76l.42,7.45-.8-.84c.28-1.37.8-2.59,1.57-3.65.76-1.06,1.74-1.9,2.93-2.51,1.19-.61,2.51-.91,3.98-.91,1.9,0,3.61.48,5.1,1.45,1.5.97,2.68,2.35,3.54,4.14.86,1.79,1.29,3.97,1.29,6.53s-.44,4.75-1.31,6.58-2.07,3.22-3.58,4.19-3.24,1.45-5.17,1.45c-2.06,0-3.77-.58-5.13-1.73-1.36-1.15-2.29-2.61-2.79-4.36l.61-.98v16.44h-6.42ZM505.77,211.05c1.72,0,3.07-.62,4.05-1.85.98-1.23,1.48-3.04,1.48-5.41s-.48-4.17-1.43-5.41-2.29-1.85-4-1.85c-1.09,0-2.05.29-2.88.87-.83.58-1.48,1.41-1.94,2.48-.47,1.08-.7,2.38-.7,3.91s.22,2.76.66,3.86c.44,1.11,1.07,1.95,1.9,2.53.83.58,1.79.87,2.88.87Z"/>
        <path class="cls-1" d="M531.48,215.96c-2.37,0-4.54-.42-6.49-1.26s-3.54-2.03-4.75-3.56l3.7-3.75c.75,1.12,1.75,2.04,3,2.76,1.25.72,2.73,1.08,4.45,1.08,1.22,0,2.19-.18,2.93-.54.73-.36,1.1-.93,1.1-1.71,0-.5-.17-.93-.52-1.29-.34-.36-1.03-.65-2.06-.87l-4.12-.84c-2.72-.56-4.64-1.41-5.78-2.55s-1.71-2.62-1.71-4.43c0-1.28.38-2.48,1.15-3.61.77-1.12,1.91-2.04,3.44-2.74,1.53-.7,3.43-1.05,5.71-1.05s4.38.37,6.11,1.1c1.73.73,3.1,1.82,4.1,3.25l-3.84,3.75c-.69-1.09-1.58-1.93-2.69-2.5s-2.27-.87-3.49-.87c-.87,0-1.62.09-2.25.28-.62.19-1.09.45-1.41.77-.31.33-.47.74-.47,1.24s.22.93.66,1.29c.44.36,1.23.66,2.39.91l4.78.98c2.31.47,3.96,1.26,4.96,2.37s1.5,2.44,1.5,4-.4,2.83-1.19,4-1.97,2.09-3.51,2.76c-1.54.67-3.44,1.01-5.69,1.01Z"/>
      </g>
    </g>
  </g>
</svg>