<?xml version="1.0" encoding="UTF-8"?>
<svg xmlns="http://www.w3.org/2000/svg" version="1.1" viewBox="0 0 600 400">
  <defs>
    <style>
      .cls-1 {
        fill: #fff;
      }

      .cls-2 {
        fill: #262324;
        opacity: 0;
      }
    </style>
  </defs>
  <!-- Generator: Adobe Illustrator 28.7.1, SVG Export Plug-In . SVG Version: 1.2.0 Build 142)  -->
  <g>
    <g id="Layer_1">
      <rect class="cls-2" width="600" height="400"/>
      <g>
        <path class="cls-1" d="M220.08,206.97c-.59,2-1.53,3.67-2.81,5.01-1.28,1.34-2.79,2.34-4.54,3-1.75.66-3.67.98-5.76.98-3.06,0-5.71-.64-7.94-1.92-2.23-1.28-3.95-3.11-5.15-5.48-1.2-2.37-1.8-5.21-1.8-8.52s.6-6.15,1.8-8.52c1.2-2.37,2.92-4.2,5.15-5.48,2.23-1.28,4.85-1.92,7.84-1.92,2.12,0,4.04.29,5.76.87,1.72.58,3.18,1.47,4.38,2.67,1.2,1.2,2.08,2.69,2.65,4.47l-5.85,2.48c-.53-1.87-1.34-3.21-2.44-4s-2.5-1.19-4.21-1.19-3.16.41-4.43,1.22c-1.26.81-2.24,2.01-2.93,3.58s-1.03,3.52-1.03,5.83.32,4.21.96,5.81c.64,1.59,1.58,2.79,2.83,3.61,1.25.81,2.78,1.22,4.59,1.22,1.69,0,3.15-.45,4.38-1.36,1.23-.91,2.1-2.28,2.6-4.12l5.95,1.78Z"/>
        <path class="cls-1" d="M237.13,200.56c0-1.34-.38-2.39-1.15-3.14-.77-.75-1.77-1.12-3.02-1.12-1.16,0-2.17.3-3.04.89-.88.59-1.51,1.58-1.92,2.95l-5.48-1.69c.53-2.06,1.69-3.71,3.49-4.96,1.79-1.25,4.21-1.87,7.24-1.87,2.06,0,3.86.32,5.38.96,1.53.64,2.72,1.6,3.58,2.88.86,1.28,1.29,2.89,1.29,4.82v9.51c0,1.19.56,1.78,1.69,1.78.53,0,1.03-.08,1.5-.23l-.38,3.98c-.81.41-1.83.61-3.04.61-1.09,0-2.08-.19-2.95-.56-.88-.38-1.56-.94-2.06-1.71-.5-.76-.75-1.72-.75-2.88v-.19l1.12-.19c-.19,1.19-.7,2.19-1.54,3.02s-1.87,1.46-3.07,1.9c-1.2.44-2.44.66-3.72.66-1.59,0-2.97-.24-4.12-.73-1.16-.48-2.04-1.19-2.67-2.13-.62-.94-.94-2.09-.94-3.46,0-1.75.56-3.18,1.69-4.29s2.73-1.87,4.82-2.27l8.8-1.78-.05,3.98-5.62,1.12c-1.06.22-1.87.51-2.41.87-.55.36-.82.94-.82,1.76s.29,1.37.87,1.78c.58.41,1.27.61,2.08.61.66,0,1.29-.08,1.92-.23.62-.16,1.19-.41,1.69-.75s.89-.81,1.17-1.41c.28-.59.42-1.31.42-2.15v-6.32Z"/>
        <path class="cls-1" d="M255.82,181.83v26.46c0,1.09.19,1.86.56,2.29s1,.66,1.87.66c.53,0,.97-.04,1.31-.12.34-.08.78-.19,1.31-.35l-.56,4.21c-.53.31-1.19.55-1.99.73-.8.17-1.58.26-2.36.26-2.28,0-3.94-.55-4.99-1.66-1.05-1.11-1.57-2.88-1.57-5.32v-27.16h6.42Z"/>
        <path class="cls-1" d="M274.13,215.96c-2.47,0-4.61-.48-6.44-1.45-1.83-.97-3.24-2.36-4.24-4.17-1-1.81-1.5-4-1.5-6.56s.5-4.75,1.5-6.56c1-1.81,2.4-3.2,4.19-4.17,1.79-.97,3.85-1.45,6.16-1.45s4.39.48,6.04,1.43c1.65.95,2.92,2.25,3.79,3.89s1.31,3.5,1.31,5.6c0,.62-.02,1.22-.05,1.78-.03.56-.08,1.06-.14,1.5h-18.69v-4.45h15.88l-3.09,1.12c0-1.97-.45-3.48-1.33-4.54s-2.15-1.59-3.77-1.59c-1.19,0-2.21.28-3.07.84-.86.56-1.51,1.4-1.94,2.5-.44,1.11-.66,2.51-.66,4.19s.24,3.02.73,4.1,1.17,1.88,2.06,2.41c.89.53,1.96.8,3.21.8,1.37,0,2.48-.26,3.33-.8.84-.53,1.5-1.26,1.97-2.2l5.1,1.97c-.5,1.22-1.26,2.26-2.27,3.14-1.01.88-2.22,1.54-3.61,1.99-1.39.45-2.88.68-4.47.68Z"/>
        <path class="cls-1" d="M289.21,215.5v-23.42h5.76l.38,7.02-.8-.75c.37-1.53.97-2.79,1.78-3.77.81-.98,1.8-1.72,2.97-2.22,1.17-.5,2.46-.75,3.86-.75,1.62,0,3.07.31,4.33.94,1.26.62,2.26,1.57,3,2.83.73,1.26,1.1,2.85,1.1,4.75v15.36h-6.42v-13.53c0-2-.39-3.38-1.17-4.14-.78-.76-1.79-1.15-3.04-1.15-.87,0-1.72.21-2.55.63-.83.42-1.5,1.1-2.01,2.04-.52.94-.77,2.19-.77,3.75v12.41h-6.42Z"/>
        <path class="cls-1" d="M325.87,215.96c-1.94,0-3.66-.48-5.17-1.45-1.51-.97-2.7-2.36-3.56-4.17-.86-1.81-1.29-3.98-1.29-6.51s.45-4.8,1.36-6.63c.9-1.83,2.13-3.22,3.68-4.17,1.55-.95,3.29-1.43,5.22-1.43,2.06,0,3.76.59,5.1,1.78,1.34,1.19,2.22,2.72,2.62,4.59l-.61.75v-16.91h6.42v33.67h-5.76l-.42-7.12.75.38c-.19,1.47-.67,2.74-1.45,3.82-.78,1.08-1.76,1.91-2.95,2.5s-2.5.89-3.93.89ZM327.75,211.05c1.12,0,2.09-.29,2.9-.87.81-.58,1.44-1.43,1.9-2.55.45-1.12.68-2.47.68-4.03s-.22-2.77-.66-3.82c-.44-1.05-1.06-1.85-1.87-2.41-.81-.56-1.76-.84-2.86-.84-1.75,0-3.11.62-4.1,1.85s-1.47,3.04-1.47,5.41.48,4.18,1.45,5.41c.97,1.23,2.31,1.85,4.03,1.85Z"/>
        <path class="cls-1" d="M358.56,200.56c0-1.34-.38-2.39-1.15-3.14-.77-.75-1.77-1.12-3.02-1.12-1.16,0-2.17.3-3.04.89-.88.59-1.51,1.58-1.92,2.95l-5.48-1.69c.53-2.06,1.69-3.71,3.49-4.96,1.79-1.25,4.21-1.87,7.24-1.87,2.06,0,3.86.32,5.38.96,1.53.64,2.72,1.6,3.58,2.88.86,1.28,1.29,2.89,1.29,4.82v9.51c0,1.19.56,1.78,1.69,1.78.53,0,1.03-.08,1.5-.23l-.38,3.98c-.81.41-1.83.61-3.04.61-1.09,0-2.08-.19-2.95-.56-.88-.38-1.56-.94-2.06-1.71-.5-.76-.75-1.72-.75-2.88v-.19l1.12-.19c-.19,1.19-.7,2.19-1.54,3.02s-1.87,1.46-3.07,1.9c-1.2.44-2.44.66-3.72.66-1.59,0-2.97-.24-4.12-.73-1.16-.48-2.04-1.19-2.67-2.13-.62-.94-.94-2.09-.94-3.46,0-1.75.56-3.18,1.69-4.29s2.73-1.87,4.82-2.27l8.8-1.78-.05,3.98-5.62,1.12c-1.06.22-1.87.51-2.41.87-.55.36-.82.94-.82,1.76s.29,1.37.87,1.78c.58.41,1.27.61,2.08.61.66,0,1.29-.08,1.92-.23.62-.16,1.19-.41,1.69-.75s.89-.81,1.17-1.41c.28-.59.42-1.31.42-2.15v-6.32Z"/>
        <path class="cls-1" d="M370.92,215.5v-23.42h5.57l.42,4.59c.62-1.62,1.54-2.87,2.74-3.75s2.71-1.31,4.52-1.31c.53,0,1.01.05,1.45.14.44.09.8.22,1.08.38l-.75,5.38c-.31-.12-.7-.22-1.15-.28s-1.04-.09-1.76-.09c-.94,0-1.84.23-2.72.68-.88.45-1.59,1.14-2.15,2.06-.56.92-.84,2.08-.84,3.49v12.13h-6.42Z"/>
        <path class="cls-1" d="M398.27,215.96c-2.37,0-4.54-.42-6.49-1.26s-3.54-2.03-4.75-3.56l3.7-3.75c.75,1.12,1.75,2.04,3,2.76,1.25.72,2.73,1.08,4.45,1.08,1.22,0,2.19-.18,2.93-.54.73-.36,1.1-.93,1.1-1.71,0-.5-.17-.93-.52-1.29-.34-.36-1.03-.65-2.06-.87l-4.12-.84c-2.72-.56-4.64-1.41-5.78-2.55s-1.71-2.62-1.71-4.43c0-1.28.38-2.48,1.15-3.61.77-1.12,1.91-2.04,3.44-2.74,1.53-.7,3.43-1.05,5.71-1.05s4.38.37,6.11,1.1c1.73.73,3.1,1.82,4.1,3.25l-3.84,3.75c-.69-1.09-1.58-1.93-2.69-2.5s-2.27-.87-3.49-.87c-.87,0-1.62.09-2.25.28-.62.19-1.09.45-1.41.77-.31.33-.47.74-.47,1.24s.22.93.66,1.29c.44.36,1.23.66,2.39.91l4.78.98c2.31.47,3.96,1.26,4.96,2.37s1.5,2.44,1.5,4-.4,2.83-1.19,4-1.97,2.09-3.51,2.76c-1.54.67-3.44,1.01-5.69,1.01Z"/>
      </g>
    </g>
  </g>
</svg>