<?xml version="1.0" encoding="utf-8"?>
<!-- Generator: Adobe Illustrator 28.2.0, SVG Export Plug-In . SVG Version: 6.00 Build 0)  -->
<svg version="1.1" id="Layer_1" xmlns="http://www.w3.org/2000/svg" xmlns:xlink="http://www.w3.org/1999/xlink" x="0px" y="0px"
	 viewBox="0 0 941.41 397.48" style="enable-background:new 0 0 941.41 397.48;" xml:space="preserve">
<style type="text/css">
	.st0{fill:#EC1A29;}
	.st1{fill:#FFFFFF;}
</style>
<g>
	<path class="st0" d="M882.83,0H58.58C26.36,0,0,26.36,0,58.58v280.33c0,32.22,26.36,58.58,58.58,58.58h824.26
		c32.22,0,58.58-26.36,58.58-58.58V58.58C941.41,26.36,915.05,0,882.83,0z"/>
	<g>
		<path class="st1" d="M326.85,201.47c0-13.7-13.65-33.14-35.88-33.14l-87.74,0.14c0,27.35,18.25,50.6,41.03,58.03v57.61h-92.51
			V113.72l92.68,0.1c31.54,0,54.45-25.8,54-55.08l-193.47,0.03c-21.48,0.46-35.93,18.31-35.93,35.49
			c0,24.97,0.13,206.17,0.13,208.36c0,20.57,16.11,36.21,36.23,36.21c13.31,0,187.12,0,185.02,0c22.83,0,36.54-18.14,36.54-36.21
			L326.85,201.47z"/>
		<path class="st1" d="M581.35,113.17H501.8l-0.09,235.69c-54.91,0-78.39-47.41-78.39-74.69l-0.29-161h-33.08
			c-28.9,0-54.63-22.56-54.63-54.52l209.59,0.06c16.99,0,36.44,13.24,36.44,36.41V113.17z"/>
		<path class="st1" d="M872.38,117.01c-15.57,30.41-44.62,51.27-82.99,51.27v-54.61h-92.61v170.39h92.61v-54.32
			c36.61,0,69.57-23.72,82.99-51.22v124.06c0,20.64-16.86,36.27-36.44,36.27c-10.15,0-174.47,0-185.31,0
			c-25.27,0-36.44-21.42-36.44-36.27V95.61c0-24.2,19.9-36.47,36.58-36.93l184.71,0.03c20.61,0,36.9,15.59,36.9,36.9V117.01z"/>
	</g>
</g>
</svg>
