<?xml version="1.0" encoding="utf-8"?>
<!-- Generator: Adobe Illustrator 28.2.0, SVG Export Plug-In . SVG Version: 6.00 Build 0)  -->
<svg version="1.1" id="Layer_1" xmlns="http://www.w3.org/2000/svg" xmlns:xlink="http://www.w3.org/1999/xlink" x="0px" y="0px"
	 viewBox="0 0 941.41 250.22" style="enable-background:new 0 0 941.41 250.22;" xml:space="preserve">
<style type="text/css">
	.st0{fill:#FFFFFF;}
</style>
<g>
	<g>
		<path class="st0" d="M123.9,27.28l-19.98,17.48C95.66,36.5,85.1,32.47,72.04,32.47c-11.91,0-21.9,4.03-30.16,12.1
			c-8.26,8.07-12.29,18.06-12.29,30.16c0,12.1,4.03,22.09,12.1,30.16c8.26,7.87,18.25,11.91,30.35,11.91
			c11.72,0,21.51-3.46,29.2-10.37V88.37H66.08V62.24h62.81v54.17c-12.48,16.71-33.62,27.28-56.86,27.28
			c-20.17,0-37.07-6.53-51.1-19.6C6.91,110.84,0,94.51,0,74.73c0-19.78,6.91-36.11,20.94-49.37S51.87,5.57,72.04,5.57
			C92.59,5.57,109.88,12.87,123.9,27.28z"/>
		<path class="st0" d="M188.84,141.58V7.68h29.58v107h52.25v26.9H188.84z"/>
		<path class="st0" d="M336.57,25.74C350.6,12.29,367.5,5.57,387.29,5.57c19.79,0,36.69,6.72,50.52,20.17
			c14.02,13.45,20.94,29.78,20.94,49.18s-6.92,35.92-20.75,49.37c-13.83,13.25-30.74,19.98-50.71,19.98
			c-19.78,0-36.69-6.72-50.71-19.98c-13.83-13.45-20.74-29.97-20.74-49.37S322.74,39.19,336.57,25.74z M357.51,105.27
			c8.07,8.07,18.06,12.1,29.78,12.1c11.72,0,21.51-4.03,29.59-12.29c8.26-8.26,12.29-18.44,12.29-30.16s-4.04-21.71-12.1-29.97
			c-8.07-8.26-18.05-12.49-29.78-12.49c-11.72,0-21.7,4.23-29.78,12.49c-8.07,8.26-12.1,18.25-12.1,29.97
			C345.41,87.02,349.44,97.01,357.51,105.27z"/>
		<path class="st0" d="M516.97,141.58V7.68h53.21c10.76,0,19.78,3.27,27.09,9.8c7.49,6.34,11.14,14.6,11.14,24.4
			c0,12.87-6.34,23.05-17.1,26.89c17.1,3.07,26.9,16.14,26.9,33.23c0,11.33-3.84,20.94-11.72,28.43
			c-7.68,7.49-17.29,11.14-29.01,11.14H516.97z M545.97,61.09h19.4c8.45,0,14.41-5.95,14.41-14.21c0-7.88-5.96-13.83-14.21-13.83
			h-19.6V61.09z M545.97,116.03h25.55c9.99,0,17.29-7.11,17.29-16.33s-7.3-15.76-17.48-15.76h-25.35V116.03z"/>
		<path class="st0" d="M662.2,141.58L731.93,0l69.73,141.58h-31.51l-10.37-21.32h-55.9l-10.37,21.32H662.2z M714.83,95.09h34
			l-17.1-35.16L714.83,95.09z"/>
		<path class="st0" d="M855.27,141.58V7.68h29.58v107h52.25v26.9H855.27z"/>
	</g>
	<g>
		<path class="st0" d="M29.93,247.9v-37.93H17.07v-9.54h36.02v9.54H40.43v37.93H29.93z"/>
		<path class="st0" d="M89.54,206.83c4.97-4.77,10.96-7.15,17.98-7.15c7.02,0,13.01,2.38,17.91,7.15
			c4.97,4.77,7.43,10.55,7.43,17.43c0,6.88-2.45,12.73-7.36,17.5c-4.9,4.7-10.89,7.08-17.98,7.08c-7.02,0-13.01-2.39-17.98-7.08
			c-4.91-4.77-7.36-10.63-7.36-17.5C82.18,217.39,84.63,211.6,89.54,206.83z M96.96,235.03c2.86,2.86,6.4,4.29,10.56,4.29
			c4.16,0,7.63-1.43,10.49-4.36c2.93-2.93,4.36-6.54,4.36-10.69s-1.43-7.7-4.29-10.63c-2.86-2.93-6.4-4.43-10.55-4.43
			c-4.16,0-7.69,1.5-10.56,4.43c-2.86,2.93-4.29,6.47-4.29,10.63C92.67,228.56,94.1,232.1,96.96,235.03z"/>
		<path class="st0" d="M166.64,200.43h10.49v27.18c0,7.69,3.27,11.51,9.74,11.51c6.47,0,9.67-3.82,9.67-11.51v-27.18h10.49v28.27
			c0,6.4-1.91,11.31-5.72,14.78c-3.82,3.47-8.65,5.18-14.44,5.18c-5.86,0-10.7-1.71-14.51-5.11c-3.82-3.47-5.72-8.38-5.72-14.85
			V200.43z"/>
		<path class="st0" d="M243.06,247.9v-47.47h19.89c4.43,0,8.24,1.5,11.37,4.56c3.2,3,4.77,6.68,4.77,11.1
			c0,6.06-3.34,11.31-8.45,13.48l11.58,18.32h-11.85l-9.88-15.8h-0.14h-6.88v15.8H243.06z M253.48,222.84h8.31
			c4.09,0,6.81-2.59,6.81-6.61c0-3.61-2.59-6.26-5.92-6.26h-9.2V222.84z"/>
		<path class="st0" d="M404.69,208.53l-7.15,6.06c-3.2-3.61-7.22-5.38-12.06-5.38c-4.22,0-7.76,1.43-10.69,4.29
			c-2.93,2.86-4.36,6.4-4.36,10.7c0,4.29,1.43,7.83,4.29,10.69c2.93,2.79,6.47,4.22,10.76,4.22c4.91,0,8.92-1.84,12.13-5.45
			l7.15,6.06c-4.83,5.65-11.71,8.93-19.27,8.93c-7.15,0-13.14-2.32-18.11-6.95c-4.97-4.7-7.42-10.49-7.42-17.5
			c0-7.02,2.45-12.8,7.42-17.5c4.97-4.7,10.96-7.02,18.11-7.02C393.05,199.68,399.86,203.02,404.69,208.53z"/>
		<path class="st0" d="M437.94,247.9v-47.47h19.89c4.43,0,8.24,1.5,11.37,4.56c3.2,3,4.77,6.68,4.77,11.1
			c0,6.06-3.34,11.31-8.45,13.48l11.58,18.32h-11.85l-9.88-15.8h-0.14h-6.88v15.8H437.94z M448.36,222.84h8.31
			c4.09,0,6.81-2.59,6.81-6.61c0-3.61-2.59-6.26-5.92-6.26h-9.2V222.84z"/>
		<path class="st0" d="M509.86,247.9v-47.47h32.42v9.54h-21.93v8.92h20.5v9.33h-20.5v10.15h22.41v9.54H509.86z"/>
		<path class="st0" d="M573.55,247.9l24.72-50.2l24.72,50.2h-11.17l-3.68-7.56h-19.82l-3.68,7.56H573.55z M592.21,231.42h12.06
			l-6.07-12.47L592.21,231.42z"/>
		<path class="st0" d="M658.75,247.9v-37.93h-12.87v-9.54h36.02v9.54h-12.66v37.93H658.75z"/>
		<path class="st0" d="M714.94,247.9v-47.47h10.49v47.47H714.94z"/>
		<path class="st0" d="M782.85,250.22l-24.38-49.79h11.17l13.21,27.85l13.28-27.85h11.17L782.85,250.22z"/>
		<path class="st0" d="M840,247.9v-47.47h32.42v9.54h-21.93v8.92h20.5v9.33h-20.5v10.15h22.41v9.54H840z"/>
		<path class="st0" d="M911.92,232.92c2.52,4.16,6.47,6.26,11.92,6.26c4.83,0,7.08-2.18,7.08-4.7c0-1.77-1.02-3-2.59-3.95
			c-0.89-0.61-2.79-1.43-4.09-1.77c-1.16-0.48-3.88-1.36-5.24-1.91c-7.43-2.72-11.51-6.61-11.51-13.76c0-4.09,1.5-7.36,4.56-9.74
			c3.06-2.45,6.81-3.68,11.23-3.68c6.88,0,12.13,2.59,15.8,7.76l-7.02,5.31c-1.91-2.45-4.77-3.68-8.51-3.68
			c-3.48,0-5.72,1.63-5.72,3.88c0,1.57,0.41,2.52,1.84,3.4c0.75,0.41,1.5,0.75,2.11,1.02l3.41,1.16c1.57,0.54,2.93,1.02,4.09,1.5
			c8.65,3.27,12.12,7.29,12.12,14.1c0,8.79-5.99,14.51-17.64,14.51c-9.6,0-16.28-4.29-19.48-10.49L911.92,232.92z"/>
	</g>
</g>
</svg>
