<?xml version="1.0" encoding="utf-8"?>
<!-- Generator: Adobe Illustrator 28.2.0, SVG Export Plug-In . SVG Version: 6.00 Build 0)  -->
<svg version="1.1" id="Layer_1" xmlns="http://www.w3.org/2000/svg" xmlns:xlink="http://www.w3.org/1999/xlink" x="0px" y="0px"
	 viewBox="0 0 943.91 341" style="enable-background:new 0 0 943.91 341;" xml:space="preserve">
<style type="text/css">
	.st0{fill:#FFFFFF;}
</style>
<g>
	<path class="st0" d="M302.93,167.43c0-16.1-16.04-38.94-42.16-38.94l-103.09,0.16c0,32.14,21.44,59.46,48.21,68.19v67.68H97.2
		V64.32l108.9,0.12c37.06,0,63.98-30.32,63.44-64.72L42.22-0.24C16.98,0.3,0,21.28,0,41.46C0,70.8,0.16,283.71,0.16,286.28
		c0,24.17,18.93,42.55,42.57,42.55c15.64,0,219.86,0,217.39,0c26.82,0,42.93-21.32,42.93-42.55L302.93,167.43z"/>
	<path class="st0" d="M601.97,63.68h-93.48l-0.11,276.94c-64.51,0-92.11-55.71-92.11-87.76l-0.34-189.17h-38.86
		c-33.96,0-64.18-26.51-64.18-64.06l246.26,0.07c19.97,0,42.82,15.56,42.82,42.79V63.68z"/>
	<path class="st0" d="M943.92,68.18c-18.3,35.74-52.42,60.24-97.51,60.24V64.26H737.59v200.2H846.4v-63.83
		c43.01,0,81.75-27.87,97.51-60.18v145.76c0,24.25-19.81,42.62-42.82,42.62c-11.93,0-205,0-217.73,0
		c-29.7,0-42.82-25.16-42.82-42.62V43.05c0-28.44,23.39-42.85,42.98-43.39l217.03,0.04c24.22,0,43.35,18.31,43.35,43.35V68.18z"/>
</g>
</svg>
