<?xml version="1.0" encoding="utf-8"?>
<!-- Generator: Adobe Illustrator 28.2.0, SVG Export Plug-In . SVG Version: 6.00 Build 0)  -->
<svg version="1.1" id="Layer_1" xmlns="http://www.w3.org/2000/svg" xmlns:xlink="http://www.w3.org/1999/xlink" x="0px" y="0px"
	 viewBox="0 0 941.41 397.48" style="enable-background:new 0 0 941.41 397.48;" xml:space="preserve">
<style type="text/css">
	.st0{fill:#262324;}
</style>
<path class="st0" d="M882.83,0H58.58C26.36,0,0,26.36,0,58.58v280.33c0,32.22,26.36,58.58,58.58,58.58h824.26
	c32.22,0,58.58-26.36,58.58-58.58V58.58C941.41,26.36,915.05,0,882.83,0z M290.42,338.84c-1.61,0-171.85,0-185.02,0
	c-20.12,0-36.23-15.64-36.23-36.21c0-2.19-0.13-183.39-0.13-208.36c0-17.18,14.45-35.03,35.93-35.49l193.47-0.03
	c0.46,29.28-22.45,55.08-54,55.08l-92.68-0.1v170.39h92.51v-57.61c-22.78-7.43-41.03-30.68-41.03-58.03l87.74-0.14
	c22.23,0,35.88,19.44,35.88,33.14l0.11,101.15C326.95,320.69,313.25,338.84,290.42,338.84z M581.35,113.17H501.8l-0.09,235.69
	c-54.91,0-78.39-47.41-78.39-74.69l-0.29-161h-33.08c-28.9,0-54.63-22.56-54.63-54.52l209.59,0.06c16.99,0,36.44,13.24,36.44,36.41
	V113.17z M872.38,117.01c-15.57,30.41-44.62,51.27-82.99,51.27v-54.61h-92.61v170.39h92.61v-54.32c36.61,0,69.57-23.72,82.99-51.22
	v124.06c0,20.64-16.86,36.27-36.44,36.27c-10.15,0-174.47,0-185.31,0c-25.27,0-36.44-21.42-36.44-36.27V95.61
	c0-24.2,19.9-36.47,36.58-36.93l184.71,0.03c20.61,0,36.9,15.59,36.9,36.9V117.01z"/>
</svg>
